<svg width="72" height="16" viewBox="0 0 72 16" fill="none" xmlns="http://www.w3.org/2000/svg">
<g clip-path="url(#clip0_252_372)">
<path d="M18.7652 7.3852H29.9613C30.2942 7.3852 30.6424 7.12122 30.7349 6.80135L31.2773 4.9442C31.3697 4.62433 31.1756 4.36035 30.8427 4.36035H19.6466C19.3137 4.36035 18.9655 4.62433 18.873 4.9442L18.3306 6.80135C18.2382 7.12122 18.4323 7.3852 18.7652 7.3852ZM27.0583 6.15228L27.2309 5.56532C27.2463 5.51253 27.3018 5.47215 27.3541 5.47215H28.8981C28.9505 5.47215 28.9813 5.51563 28.9659 5.56532L28.7933 6.15228C28.7779 6.20507 28.7225 6.24544 28.6701 6.24544H27.1261C27.0737 6.24544 27.0429 6.20197 27.0583 6.15228ZM23.7762 6.15228L23.9488 5.56532C23.9642 5.51253 24.0196 5.47215 24.072 5.47215H25.616C25.6684 5.47215 25.6992 5.51563 25.6838 5.56532L25.5112 6.15228C25.4958 6.20507 25.4404 6.24544 25.388 6.24544H23.844C23.7916 6.24544 23.7608 6.20197 23.7762 6.15228ZM20.4941 6.15228L20.6666 5.56532C20.6821 5.51253 20.7375 5.47215 20.7899 5.47215H22.3339C22.3863 5.47215 22.4171 5.51563 22.4017 5.56532L22.2291 6.15228C22.2137 6.20507 22.1582 6.24544 22.1058 6.24544H20.5619C20.5095 6.24544 20.4787 6.20197 20.4941 6.15228Z" fill="#FF5100"/>
<path d="M19.8622 3.91616H30.7748C30.9752 3.91616 31.1816 3.75778 31.2402 3.56523L31.348 3.19877C31.4035 3.00622 31.2864 2.84784 31.0892 2.84784H26.6206C26.6206 2.84784 26.6206 2.84473 26.6206 2.84163L26.7469 2.40374H31.6747C31.875 2.40374 32.0815 2.24536 32.1401 2.05281L32.2479 1.68635C32.3034 1.4938 32.1863 1.33542 31.9891 1.33542H27.0582L27.1599 0.984486C27.2523 0.66461 27.0551 0.400635 26.7254 0.400635H25.6097C25.2769 0.400635 24.9317 0.66461 24.8393 0.984486L24.7376 1.33542H20.3152C20.1149 1.33542 19.9084 1.4938 19.8499 1.68635L19.742 2.05281C19.6865 2.24536 19.8036 2.40374 20.0009 2.40374H24.4294L24.3031 2.84163C24.3031 2.84163 24.3031 2.84473 24.3031 2.84784H20.1827C19.9824 2.84784 19.7759 3.00622 19.7173 3.19877L19.6095 3.56523C19.554 3.75778 19.6711 3.91616 19.8684 3.91616H19.8622Z" fill="#FF5100"/>
<path d="M33.385 3.54356H35.0615C35.157 3.54356 35.268 3.53114 35.382 3.5063L34.7811 5.35412C34.6763 5.67089 34.8643 5.93176 35.1971 5.93176H36.3743C36.7072 5.93176 37.0616 5.67089 37.1664 5.35412L37.7766 3.48456C37.8813 3.16779 37.6934 2.90692 37.3605 2.90692H36.5408L39.4438 0.788906C39.7119 0.593253 39.6595 0.431763 39.3298 0.431763H37.6533C37.3205 0.431763 36.8304 0.593253 36.5623 0.788906L33.2741 3.18953C33.0059 3.38518 33.0583 3.54667 33.3881 3.54667L33.385 3.54356Z" fill="#FF5100"/>
<path d="M47.509 6.9535H49.1855C49.5184 6.9535 49.9221 6.71437 50.0885 6.42555L53.1703 0.959713C53.3336 0.667788 53.198 0.431763 52.8652 0.431763H51.1887C50.8559 0.431763 50.4521 0.670893 50.2857 0.959713L47.2039 6.42555C47.0406 6.71748 47.1762 6.9535 47.509 6.9535Z" fill="#FF5100"/>
<path d="M42.9046 3.50002L45.669 2.8758C45.9926 2.80126 46.3346 2.48139 46.4271 2.15841L46.6921 1.24847C46.7846 0.928594 46.5966 0.723625 46.273 0.798159L43.5086 1.42238C43.185 1.49692 42.843 1.81679 42.7505 2.13977L42.4855 3.04971C42.393 3.36959 42.581 3.57456 42.9046 3.50002Z" fill="#FF5100"/>
<path d="M39.4778 5.8882H45.2131C45.5459 5.8882 45.8941 5.62733 45.9928 5.30746L46.2054 4.60249C46.3009 4.28261 46.1099 4.02174 45.777 4.02174H42.384C42.0511 4.02174 41.8539 3.75777 41.9433 3.43789L42.6243 1.00621C42.7137 0.683233 42.5165 0.422363 42.1837 0.422363H41.0064C40.6736 0.422363 40.3284 0.686338 40.239 1.00621L39.0371 5.30746C38.9478 5.63044 39.145 5.89131 39.4778 5.89131V5.8882Z" fill="#FF5100"/>
<path d="M15.2179 15.6118H18.7928C19.1256 15.6118 19.6403 15.4938 19.9392 15.3509L23.2737 13.7454H27.6406C27.9735 13.7454 28.3279 13.4845 28.4265 13.1646L29.915 8.45343C30.0167 8.13355 29.8256 7.87268 29.4959 7.87268H19.1842C18.8513 7.87268 18.4969 8.13355 18.3983 8.45343L16.9098 13.1646C16.8081 13.4845 16.9992 13.7454 17.3289 13.7454H18.4938L15.1593 15.3509C14.8604 15.4938 14.8851 15.6118 15.2179 15.6118ZM21.2336 9.33231L21.289 9.16461C21.3291 9.03728 21.4709 8.93169 21.6034 8.93169H26.3617C26.4942 8.93169 26.5682 9.03728 26.5281 9.16461L26.4726 9.33231C26.4326 9.45964 26.2908 9.56212 26.1583 9.56212H21.4C21.2675 9.56212 21.1935 9.45653 21.2336 9.33231ZM20.8268 10.5994L20.8792 10.441C20.9192 10.3137 21.061 10.2081 21.1935 10.2081H25.9518C26.0843 10.2081 26.1583 10.3137 26.1182 10.441L26.0658 10.5994C26.0258 10.7267 25.884 10.8323 25.7515 10.8323H20.9932C20.8607 10.8323 20.7867 10.7267 20.8268 10.5994ZM20.4169 11.8727L20.4693 11.7112C20.5093 11.5839 20.6511 11.4783 20.7836 11.4783H25.5419C25.6744 11.4783 25.7484 11.5839 25.7083 11.7112L25.6559 11.8727C25.6159 12 25.4741 12.1025 25.3416 12.1025H20.5833C20.4508 12.1025 20.3768 11.9969 20.4169 11.8727Z" fill="#FF5100"/>
<path d="M53.7343 2.82614C53.4015 2.82614 53.0563 3.09012 52.967 3.4131L51.1734 9.86962C51.084 10.1926 51.2812 10.4566 51.6141 10.4566H53.8823L53.42 11.0187C53.2875 10.9907 53.158 10.9752 53.0502 10.9752H50.0054C49.6725 10.9752 49.6325 11.1181 49.916 11.292L52.0917 12.6274L50.4368 14.6336C50.4368 14.6336 50.4306 14.6429 50.4152 14.6615L50.3783 14.7081C50.2766 14.8199 50.0239 15.0125 49.4691 15.0528H48.2118C48.2672 14.9783 48.3104 14.8945 48.335 14.8075L50.218 7.98763C50.3074 7.66465 50.1071 7.40067 49.7773 7.40067H48.6001C48.2672 7.40067 47.9251 7.66465 47.8358 7.98763L45.9528 14.8075C45.9281 14.8945 45.9251 14.9783 45.9405 15.0528H43.1545C42.8217 15.0094 42.5597 14.7827 42.5597 14.7827L42.1745 14.4286C41.9311 14.2019 41.4595 14.0156 41.1267 14.0156H38.3161C37.9833 14.0156 37.9124 14.2019 38.1559 14.4286L38.991 15.205C39.2345 15.4317 39.706 15.6181 40.0388 15.6181H52.1626C52.4954 15.6181 52.9392 15.4069 53.1519 15.1491L54.175 13.9069L56.4432 15.3013C56.7268 15.4752 57.2291 15.6181 57.5619 15.6181H58.0149H71.8491C72.031 15.6181 72.0556 15.5373 71.9015 15.441L71.2358 15.0187C71.0818 14.9193 70.8044 14.8417 70.6226 14.8417H60.7238C59.8517 14.8417 59.4418 14.5311 59.4418 14.5311L56.1166 12.4907C56.1166 12.4907 56.1042 12.4845 56.0981 12.4783L56.0642 12.4597C55.7652 12.2578 55.8577 11.941 55.9717 11.733L57.0195 10.4628H59.9102C60.2431 10.4628 60.5882 10.1988 60.6776 9.87583L62.4712 3.41931C62.5606 3.09633 62.3634 2.83235 62.0305 2.83235H59.2816L59.4357 2.27645H61.4635C61.7963 2.27645 62.1384 2.01248 62.2278 1.68949L62.4219 0.978314C62.5113 0.655333 62.311 0.391357 61.9781 0.391357H55.1088C54.776 0.391357 54.4339 0.655333 54.3445 0.978314L54.1504 1.68949C54.061 2.01248 54.2613 2.27645 54.5942 2.27645H56.6867L56.5326 2.83235H53.7405L53.7343 2.82614ZM54.5633 5.9721L54.8191 5.05595C54.8561 4.92862 54.9917 4.82303 55.1242 4.82303H55.7252C55.8577 4.82303 55.9378 4.92862 55.9008 5.05595L55.7005 5.77334L55.645 5.9721C55.6081 6.09943 55.4694 6.20502 55.3369 6.20502H54.739C54.6065 6.20502 54.5264 6.09943 54.5633 5.9721ZM53.8638 8.48763L54.1257 7.54664C54.1627 7.41931 54.2983 7.31372 54.4308 7.31372H55.0256C55.1581 7.31372 55.2382 7.41931 55.2013 7.54664L54.9825 8.32303L54.9362 8.48763C54.8993 8.61496 54.7606 8.72055 54.6281 8.72055H54.0363C53.9038 8.72055 53.8237 8.61496 53.8607 8.48763H53.8638ZM59.0597 7.54664L58.7977 8.48763C58.7607 8.61496 58.6251 8.72055 58.4926 8.72055H57.867C57.7345 8.72055 57.6544 8.61496 57.6914 8.48763L57.9564 7.54664C57.9934 7.41931 58.1321 7.31372 58.2646 7.31372H58.8871C59.0196 7.31372 59.0997 7.41931 59.0628 7.54664H59.0597ZM58.958 4.81993H59.5743C59.7069 4.81993 59.787 4.92552 59.75 5.05285L59.4942 5.969C59.4572 6.09633 59.3216 6.20192 59.1891 6.20192H58.5697C58.4372 6.20192 58.357 6.09633 58.394 5.969L58.6498 5.05285C58.6868 4.92552 58.8255 4.81993 58.958 4.81993Z" fill="#FF5100"/>
<path d="M30.7933 14.8013C30.442 14.9783 30.1276 15.0342 29.9489 15.0497H28.5497C28.2785 15.0156 28.0566 14.8603 27.9827 14.8013L27.5759 14.4255C27.3324 14.1988 26.8609 14.0125 26.5281 14.0125H23.7175C23.3846 14.0125 23.3138 14.1988 23.5572 14.4255L24.3924 15.2019C24.6358 15.4286 25.1074 15.615 25.4402 15.615H33.2957C33.6285 15.615 34.1432 15.4969 34.4421 15.351L37.7212 13.7609H42.1651C42.4979 13.7609 42.8523 13.5 42.954 13.1833L44.9726 6.91309C45.0743 6.59632 44.8863 6.33545 44.5566 6.33545H34.3712C34.0384 6.33545 33.684 6.59632 33.5823 6.91309L31.5637 13.1833C31.462 13.5 31.65 13.7609 31.9798 13.7609H32.9413L30.7902 14.8044L30.7933 14.8013ZM35.4468 12.7702C35.4468 12.5653 35.6132 12.3976 35.8166 12.3976C36.02 12.3976 36.1864 12.5653 36.1864 12.7702C36.1864 12.9752 36.02 13.1429 35.8166 13.1429C35.6132 13.1429 35.4468 12.9752 35.4468 12.7702ZM38.8953 13.1429C38.6919 13.1429 38.5255 12.9752 38.5255 12.7702C38.5255 12.5653 38.6919 12.3976 38.8953 12.3976C39.0987 12.3976 39.2651 12.5653 39.2651 12.7702C39.2651 12.9752 39.0987 13.1429 38.8953 13.1429ZM35.3944 9.90377L35.7673 8.76402C35.8104 8.63669 35.9522 8.53421 36.0847 8.53421H40.427C40.5595 8.53421 40.6335 8.63669 40.5934 8.76402L40.5687 8.84166C40.5256 8.96899 40.3838 9.07147 40.2513 9.07147H36.4792C36.3467 9.07147 36.2049 9.17706 36.1648 9.30439L36.1063 9.49073C36.0662 9.61806 36.1402 9.74228 36.2696 9.76713L39.8322 10.4286C39.9616 10.4535 40.0356 10.5777 39.9924 10.705L39.9801 10.7392C39.937 10.8665 39.7952 10.9504 39.6658 10.9255L35.5577 10.1802C35.4283 10.1553 35.3543 10.0342 35.3944 9.90688V9.90377ZM34.7626 11.8572L34.7934 11.7609C34.8335 11.6336 34.9753 11.5311 35.1078 11.5311H39.8014C39.9339 11.5311 40.0756 11.4286 40.1188 11.3013L41.2991 7.73918C41.3423 7.61185 41.3762 7.50936 41.3762 7.50936C41.3762 7.50936 41.4809 7.48141 41.6104 7.44725L42.8801 7.12737C43.0095 7.09632 43.0804 7.17396 43.0403 7.29818L43.0095 7.39446C42.9695 7.52178 42.8308 7.65222 42.7013 7.68638L42.0449 7.85098C41.9155 7.88203 41.7768 8.01247 41.7337 8.1398L40.6828 11.3044C40.6396 11.4317 40.6057 11.5342 40.6088 11.5342C40.6119 11.5342 40.578 11.6398 40.5348 11.764L40.504 11.8603C40.464 11.9876 40.3222 12.0932 40.1897 12.0932H34.926C34.7934 12.0932 34.7195 11.9876 34.7595 11.8603L34.7626 11.8572Z" fill="#FF5100"/>
<path d="M57.2043 12.5559H57.2012L57.9254 13.0156C57.9254 13.0156 58.0888 13.146 58.4123 13.1615H67.8149C67.9967 13.1615 68.0214 13.0808 67.8673 12.9845L67.2016 12.5622C67.0475 12.4628 66.7702 12.3851 66.5884 12.3851H57.1704C57.1057 12.4069 57.0625 12.4535 57.2043 12.559V12.5559Z" fill="#FF5100"/>
<path d="M66.4003 13.7858C66.2462 13.6864 65.9688 13.6088 65.787 13.6088H59.0779C59.0225 13.6274 58.9855 13.6647 59.0718 13.7454L59.9563 14.3075C60.0395 14.3448 60.1689 14.3821 60.3446 14.3883C60.3446 14.3883 60.3507 14.3883 60.3538 14.3883H67.0166C67.1985 14.3883 67.2231 14.3075 67.069 14.2112L66.4034 13.7889L66.4003 13.7858Z" fill="#FF5100"/>
<path d="M9.06359 12.0249C9.30705 12.0249 9.50429 12.2268 9.50429 12.4721C9.50429 12.7174 9.30705 12.9193 9.06359 12.9193C8.82013 12.9193 8.62598 12.7174 8.62598 12.4721C8.62598 12.2268 8.82013 12.0249 9.06359 12.0249ZM9.06359 12.8293C9.25466 12.8293 9.40567 12.674 9.40567 12.469C9.40567 12.264 9.25466 12.1119 9.06359 12.1119C8.87252 12.1119 8.72151 12.2671 8.72151 12.469C8.72151 12.6709 8.87252 12.8293 9.06359 12.8293ZM9.00812 12.7112H8.91567V12.2268H9.08208C9.17454 12.2268 9.24542 12.292 9.24542 12.3789C9.24542 12.4473 9.20227 12.5032 9.14064 12.5218L9.2485 12.7112H9.14372L9.04202 12.5311H9.00504V12.7112H9.00812ZM9.06976 12.4504C9.12523 12.4504 9.15296 12.4224 9.15296 12.3789C9.15296 12.3324 9.12215 12.3044 9.06976 12.3044H9.00812V12.4504H9.06976Z" fill="#006450"/>
<path d="M11.187 8.6336C10.9497 8.6336 10.7833 8.74851 10.6323 8.87583L10.5244 9.03422L10.4844 9.00627L10.6169 8.77956V8.6367H9.77246V11.4566H10.5398V9.66776C10.5398 9.37894 10.734 9.28577 10.8665 9.26714C10.9929 9.25161 11.1562 9.31993 11.1562 9.47832V11.4535H11.9236V9.50938C11.9236 8.91 11.6524 8.63049 11.1901 8.63049" fill="#006450"/>
<path d="M2.61014 10.851H3.41757V11.4566H1.84277V8.63672H2.61014V10.851Z" fill="#006450"/>
<path d="M0 11.4566H1.5748V10.9038H0.767367V10.2734H1.5748V9.74231H0.767367V9.21436H1.5748V8.63672H0V11.4566Z" fill="#006450"/>
<path d="M3.68604 11.4566H5.26083V10.9038H4.45648V10.2734H5.26083V9.74231H4.45648V9.21436H5.26083V8.63672H3.68604V11.4566Z" fill="#006450"/>
<path d="M7.92627 11.4566H9.50107V10.9038H8.69364V10.2734H9.50107V9.74231H8.69364V9.21436H9.50107V8.63672H7.92627V11.4566Z" fill="#006450"/>
<path d="M6.92812 8.63672V8.63982L6.63227 10.4255L6.6107 10.733L6.60761 10.7609H6.57988V10.733L6.55831 10.4255L6.25937 8.63982V8.63672H5.48584L6.12377 11.4566H7.06372L7.70165 8.63672H6.92812Z" fill="#006450"/>
<path d="M10.0035 0.00622559H0V4.00622H5.27912C6.45636 2.27641 8.08971 0.885107 10.0035 0.00622559Z" fill="#ED6C00"/>
<path d="M3.97559 15.9999H7.94494L7.94802 12.0031H3.98175L3.97559 15.9999Z" fill="#E5001E"/>
<path d="M11.9203 4.01553V0C8.12971 1.04969 5.17118 4.12422 4.26514 7.99689H8.32694C8.93714 6.22671 10.2469 4.78882 11.9203 4.01242V4.01553Z" fill="#E5001E"/>
</g>
<defs>
<clipPath id="clip0_252_372">
<rect width="72" height="16" fill="white"/>
</clipPath>
</defs>
</svg>
