<svg width="44" height="16" viewBox="0 0 44 16" fill="none" xmlns="http://www.w3.org/2000/svg">
<g clip-path="url(#clip0_252_398)">
<mask id="mask0_252_398" style="mask-type:luminance" maskUnits="userSpaceOnUse" x="-11" y="-9" width="64" height="35">
<path d="M-10.7119 -8.74168H52.9165V25.7845H-10.7119V-8.74168Z" fill="white"/>
</mask>
<g mask="url(#mask0_252_398)">
<path d="M1.78111 4.15967C1.78545 4.15105 1.78815 4.14069 1.79219 4.13178H1.1556C1.01508 4.13178 0.883844 4.16259 0.765625 4.21252C0.923051 4.17544 1.09409 4.15967 1.27472 4.15967H1.78111Z" fill="#47A736"/>
<path d="M3.26273 10.8018C3.09723 10.6043 2.93381 10.3971 2.8117 10.2315C2.66715 10.0322 2.66715 9.75611 2.75753 9.51081C3.0468 8.65213 3.48106 7.01171 3.8426 5.63162H4.02352C4.5407 5.63162 4.92588 6.08864 4.89086 6.48929C4.82652 7.22445 3.94526 9.95585 3.73172 10.5409C3.6774 10.6898 3.62158 10.7831 3.49902 11.0747L2.26909 12.9761C2.26909 12.9761 2.17437 13.1027 2.08847 13.2163C2.06139 13.2523 2.0358 13.286 2.0138 13.315C1.99659 13.3374 1.98118 13.3574 1.9707 13.3709L1.97025 13.3703C1.41388 14.0875 0.794498 14.7761 0.0449288 15.3987C-0.0456061 15.5058 0.00886449 15.6593 0.135314 15.6593H2.68525C2.86617 15.6746 2.99262 15.6133 3.10112 15.5058C3.28204 15.3067 3.53523 15.0152 3.80654 14.6933C4.04163 14.9692 4.31264 15.2299 4.52977 15.46C4.63841 15.5673 4.81903 15.6593 5.01806 15.6593H7.4414C7.64028 15.6593 7.62232 15.5058 7.53194 15.3987C6.66385 14.5708 5.85008 13.7579 5.07223 12.9301C5.8637 11.684 6.34481 10.3066 6.62898 8.91655C6.77204 8.21746 6.86467 7.51092 6.91316 6.80262C6.95775 6.15361 7.11802 5.42152 6.56658 4.89617C6.08697 4.43945 5.45667 4.1597 4.7288 4.1597H4.15012C4.18379 4.00668 4.20819 3.8522 4.22794 3.69553C4.23243 3.68152 4.24021 3.66896 4.2441 3.6545L4.37175 3.17647C4.51107 2.65419 4.12109 2.13016 3.50501 2.01189C2.88907 1.89377 2.27104 2.22434 2.13157 2.74662C2.13157 2.74662 1.87343 3.95105 1.79203 4.13181C1.78799 4.14072 1.78529 4.15094 1.7811 4.1597H1.27456C1.09409 4.1597 0.922893 4.17532 0.765467 4.21255C0.474259 4.33549 0.271041 4.58838 0.271041 4.88172C0.271041 5.2942 0.669096 5.63162 1.15559 5.63162H1.22039H1.47358C1.23849 6.7048 0.876802 8.10021 0.496855 9.11206C0.298127 9.63346 0.153421 10.1549 0.496855 10.6915C0.952223 11.3835 1.47673 12.04 2.02083 12.6829" fill="#00A041"/>
<path d="M3.58866 10.8536C3.55828 10.9272 3.5309 11.0016 3.49902 11.0747L3.58881 10.8542L3.58866 10.8536Z" fill="#47A736"/>
<path d="M2.01376 13.3149C1.9994 13.3335 1.98458 13.3519 1.97021 13.3703L1.97081 13.3708C1.98129 13.3576 1.9967 13.3374 2.01376 13.3149Z" fill="#47A736"/>
<path d="M2.269 12.9761C2.20974 13.0566 2.14898 13.1364 2.08838 13.2163C2.17413 13.1027 2.269 12.9761 2.269 12.9761Z" fill="#47A736"/>
<path d="M17.9418 13.2484L17.3322 8.21163L12.5049 8.25368V7.71709C13.174 6.85826 14.0059 5.72362 14.6749 4.78843C14.9462 4.38968 15.0004 3.89908 14.8017 3.51595C14.5666 3.08654 14.024 2.76444 13.1198 2.76444H9.98492H8.58051H8.19188C7.70449 2.76444 7.30569 3.10245 7.30569 3.51581C7.30569 3.68868 7.37827 3.84637 7.49514 3.97369C7.49529 3.97428 7.49544 3.97501 7.49559 3.97574C7.51893 4.03765 7.55275 4.06247 7.59315 4.06539C7.75133 4.1895 7.96083 4.26717 8.19188 4.26717H8.38178H9.98492H11.9263C12.1253 4.26717 12.1795 4.38968 12.0527 4.5278C11.474 5.30983 10.8773 6.07638 10.2082 6.8276C10.0454 7.01172 9.99106 7.22636 9.99106 7.45647V8.25368H7.20602C7.07957 8.25368 6.95312 8.34552 6.95312 8.45298V9.54149C6.95312 9.69494 7.06147 9.75627 7.20602 9.75627H9.99106V13.7886C9.99106 14.0187 9.82854 14.172 9.55724 14.1874H8.32731C8.20086 14.1874 8.11048 14.2947 8.16465 14.4022L8.5624 15.46C8.61657 15.6135 8.70726 15.6593 8.88788 15.6593H10.2805C11.0401 15.6593 11.6008 15.4907 11.9804 15.138C12.3421 14.8008 12.5049 14.3102 12.5049 13.6815V9.75627L15.9608 9.71699L16.5705 14.7539H19.1174C19.2552 14.2099 19.7399 13.8064 20.3167 13.8064C20.8936 13.8064 21.3781 14.2099 21.5161 14.7539H28.7472C28.8852 14.2099 29.3697 13.8064 29.9466 13.8064C30.5233 13.8064 31.008 14.2099 31.146 14.7539H33.1852V13.2484H17.9418Z" fill="#00A041"/>
<path d="M30.7933 14.7538C30.6683 14.3948 30.3369 14.1375 29.9466 14.1375C29.5563 14.1375 29.2249 14.3948 29.0999 14.7538C29.0657 14.8524 29.0459 14.9581 29.0459 15.0687C29.0459 15.583 29.4492 16 29.9466 16C30.444 16 30.8473 15.583 30.8473 15.0687C30.8473 14.9581 30.8276 14.8524 30.7933 14.7538Z" fill="#008CD6"/>
<path d="M21.1634 14.7538C21.0385 14.3948 20.707 14.1375 20.3167 14.1375C19.9263 14.1375 19.595 14.3948 19.47 14.7538C19.4358 14.8524 19.416 14.9581 19.416 15.0687C19.416 15.583 19.8193 16 20.3167 16C20.8141 16 21.2173 15.583 21.2173 15.0687C21.2173 14.9581 21.1977 14.8524 21.1634 14.7538Z" fill="#008CD6"/>
<path d="M28.9271 9.08257H21.3369C21.1141 9.08257 20.9333 8.90634 20.9333 8.68893C20.9333 8.47137 21.1141 8.29514 21.3369 8.29514H28.9271C29.15 8.29514 29.3307 8.47137 29.3307 8.68893C29.3307 8.90634 29.15 9.08257 28.9271 9.08257ZM28.9271 10.5891H21.3369C21.1141 10.5891 20.9333 10.4129 20.9333 10.1955C20.9333 9.97805 21.1141 9.80167 21.3369 9.80167H28.9271C29.15 9.80167 29.3307 9.97805 29.3307 10.1955C29.3307 10.4129 29.15 10.5891 28.9271 10.5891ZM28.9271 12.0958H21.3369C21.1141 12.0958 20.9333 11.9194 20.9333 11.702C20.9333 11.4846 21.1141 11.3083 21.3369 11.3083H28.9271C29.15 11.3083 29.3307 11.4846 29.3307 11.702C29.3307 11.9194 29.15 12.0958 28.9271 12.0958ZM31.0841 12.2987C31.2755 12.0628 31.3625 11.7529 31.3625 11.3695V8.96299C31.3625 8.49109 31.1886 8.12226 30.858 7.87142C30.545 7.63547 30.0926 7.51749 29.5184 7.51749H24.7304H22.1073H20.8721H19.909H19.0454C18.9236 7.51749 18.8018 7.62072 18.8018 7.72395V11.6792C18.8018 12.0038 18.993 12.2545 19.2193 12.4463C19.3686 12.582 19.544 12.6839 19.7056 12.7498H30.4202C30.7114 12.6294 30.923 12.4852 31.0841 12.2987Z" fill="#008CD6"/>
<path d="M29.2625 6.49064H28.1831C27.9009 6.49064 27.6721 6.26739 27.6721 5.99187C27.6721 5.7165 27.9009 5.4931 28.1831 5.4931H29.2625C29.5447 5.4931 29.7737 5.7165 29.7737 5.99187C29.7737 6.26739 29.5447 6.49064 29.2625 6.49064ZM25.5324 6.49064H24.4531C24.1708 6.49064 23.9419 6.26739 23.9419 5.99187C23.9419 5.7165 24.1708 5.4931 24.4531 5.4931H25.5324C25.8147 5.4931 26.0435 5.7165 26.0435 5.99187C26.0435 6.26739 25.8147 6.49064 25.5324 6.49064ZM21.8022 6.49064H20.723C20.4406 6.49064 20.2118 6.26739 20.2118 5.99187C20.2118 5.7165 20.4406 5.4931 20.723 5.4931H21.8022C22.0846 5.4931 22.3134 5.7165 22.3134 5.99187C22.3134 6.26739 22.0846 6.49064 21.8022 6.49064ZM19.5935 4.78232C18.9413 4.78232 18.4077 5.303 18.4077 5.93945V6.04443C18.4077 6.68074 18.9413 7.20142 19.5935 7.20142H30.6697C31.3219 7.20142 31.8555 6.68074 31.8555 6.04443V5.93945C31.8555 5.303 31.3219 4.78232 30.6697 4.78232H19.5935Z" fill="#008CD6"/>
<path d="M17.9902 3.12416H23.9574V3.62571H19.3646C19.2603 3.62571 19.1558 3.69944 19.1558 3.78792V4.33371C19.1558 4.42219 19.2427 4.46643 19.3472 4.46643H30.8988C30.9859 4.46643 31.0904 4.43694 31.0904 4.31896V3.78792C31.0904 3.69944 30.9686 3.62571 30.8815 3.62571H26.3236V3.12416H32.2558C32.3603 3.12416 32.4647 3.03568 32.4647 2.93245V2.31293C32.4647 2.19496 32.3951 2.13597 32.2558 2.13597H26.3236C26.3214 2.12239 26.3163 2.10998 26.3134 2.09669V1.38475H23.9645C23.9645 1.38475 23.9574 1.95886 23.9574 2.13597H18.0077C17.8858 2.13597 17.7988 2.2097 17.7988 2.28344V2.96195C17.7988 3.06517 17.9033 3.12416 17.9902 3.12416Z" fill="#008CD6"/>
<path d="M42.993 4.49022H39.3982V2.0961V0.982771C39.3982 0.469254 38.9354 -0.0228004 38.3919 0.000853539C37.8467 0.0247993 37.3856 0.432314 37.3856 0.982771V4.49022H34.9319H33.7909C33.2646 4.49022 32.7603 4.94183 32.7845 5.47214C32.8091 6.00405 33.2267 6.45391 33.7909 6.45391H37.3856V8.84803V9.96136C37.3856 10.4749 37.8485 10.9669 38.3919 10.9433C38.9372 10.9193 39.3982 10.5118 39.3982 9.96136V6.45391H41.8519H42.993C43.5193 6.45391 44.0236 6.0023 43.9993 5.47214C43.9748 4.94008 43.5571 4.49022 42.993 4.49022Z" fill="#008CD6"/>
</g>
</g>
<defs>
<clipPath id="clip0_252_398">
<rect width="44" height="16" fill="white"/>
</clipPath>
</defs>
</svg>
