<?xml version="1.0" encoding="utf-8"?>
<!-- Generator: Adobe Illustrator 25.0.0, SVG Export Plug-In . SVG Version: 6.00 Build 0)  -->
<svg version="1.1" id="圖層_1" xmlns="http://www.w3.org/2000/svg" xmlns:xlink="http://www.w3.org/1999/xlink" x="0px" y="0px"
	 viewBox="0 0 100 100" style="enable-background:new 0 0 100 100;" xml:space="preserve">
<style type="text/css">
	.st0{fill:#C09D59;}
</style>
<path class="st0" d="M46.04-0.01c2.54,0,5.07,0,7.61,0c1.57,0.22,3.16,0.13,4.73,0.39c6.23,1.06,12.05,3.2,17.45,6.47
	c8.37,5.06,14.72,12,19.13,20.71c2.44,4.83,4.06,9.94,4.73,15.3c0.45,3.58,0.3,7.19,0.23,10.8c-0.08,3.95-0.9,7.74-2.08,11.47
	c-2.2,6.95-5.79,13.1-10.67,18.53c-3.96,4.4-8.6,7.9-13.78,10.72c-2.61,1.42-5.36,2.51-8.18,3.42c-1.52,0.49-1.7,0.32-1.7-1.27
	c-0.01-5.59,0-11.18,0-16.78c0-5.82,0-11.64,0-17.46c0-1.59,0.14-1.73,1.72-1.73c2.6-0.01,5.2,0,7.8-0.01c1.1,0,1.23-0.12,1.36-1.19
	c0.38-3.1,0.8-6.19,1.19-9.28c0.15-1.19,0.12-1.23-1.06-1.23c-3.09-0.01-6.18,0-9.27,0c-1.63,0-1.76-0.14-1.76-1.8
	c0-2.54-0.02-5.07,0-7.61c0.03-3.1,1.82-4.94,4.9-5.22c2.18-0.2,4.35-0.18,6.53-0.19c1.17-0.01,1.25-0.07,1.25-1.19
	c0.01-2.7,0.01-5.4,0-8.1c-0.01-1.13-0.06-1.17-1.22-1.27c-2.88-0.26-5.77-0.46-8.66-0.36c-2.89,0.1-5.69,0.64-8.21,2.16
	c-3.92,2.37-5.95,5.97-6.67,10.39c-0.16,1-0.23,2-0.22,3.01c0.02,2.73,0.01,5.46,0,8.19c0,1.79-0.19,1.97-1.94,1.98
	c-2.5,0.01-5.01,0-7.51,0c-1.2,0-1.27,0.07-1.28,1.27c-0.01,3.15-0.01,6.31,0,9.46c0,1.09,0.09,1.17,1.17,1.18
	c2.67,0.01,5.33-0.01,8,0.01c1.4,0.01,1.56,0.17,1.56,1.59c0.01,12.06,0.01,24.13,0,36.19c0,1.39-0.05,1.38-1.41,1.43
	c-8.09,0.29-15.66-1.69-22.82-5.33c-4.55-2.31-8.69-5.27-12.29-8.88C7.1,78.14,2.2,69.05,0.39,58.38C0.15,56.94,0.24,55.47,0,54.03
	c0-2.73,0-5.46,0-8.19c0.19-1.05,0.1-2.12,0.25-3.17c1.33-9.34,5.11-17.59,11.1-24.86c4.6-5.58,10.2-9.89,16.66-13.07
	c4.6-2.27,9.46-3.8,14.56-4.48C43.73,0.11,44.89,0.2,46.04-0.01z"/>
</svg>
