<?xml version="1.0" encoding="utf-8"?>
<!-- Generator: Adobe Illustrator 25.0.0, SVG Export Plug-In . SVG Version: 6.00 Build 0)  -->
<svg version="1.1" id="圖層_1" xmlns="http://www.w3.org/2000/svg" xmlns:xlink="http://www.w3.org/1999/xlink" x="0px" y="0px"
	 viewBox="0 0 100 100" style="enable-background:new 0 0 100 100;" xml:space="preserve">
<style type="text/css">
	.st0{fill:#BA9958;}
</style>
<path class="st0" d="M99.2,34.8c-2.2-8.6-7.1-15.5-13.9-21c-9.1-7.3-19.6-11-31.1-11.7c-6.6-0.4-13.1,0-19.5,1.8
	c-10.3,2.8-19.2,7.8-26.2,16c-3.7,4.4-6.3,9.4-7.8,14.9c-0.4,1.6-0.5,3.3-0.7,4.9c0,1.4,0,2.7,0,4.1c0.2,0.5,0.2,0.9,0,1.4
	c0,0.3,0,0.7,0,1c0.1,0.1,0.1,0.3,0.1,0.5c0,2.2,0.4,4.3,1.1,6.3c2.9,9,8.5,16,16.2,21.4c7,4.9,14.8,7.8,23.2,9.1
	c1.3,0.2,2.6,0.5,3.8,1.1c1.1,0.6,1.8,1.5,1.8,2.8c0,1,0,1.9-0.1,2.9c-0.3,1.7-0.6,3.4-0.8,5.1c-0.2,2,0.6,2.9,2.7,2.8
	c0.7,0,1.3-0.3,2-0.5c1.2-0.6,2.4-1.1,3.6-1.8c7.6-4.3,14.8-9.2,21.7-14.6C80.9,76.7,86.4,72,91,66.4c4.9-5.9,8.4-12.4,8.8-20.3
	C100.1,42.3,100.1,38.5,99.2,34.8z M32.5,55.2c-0.5,0.7-1.2,1.1-2,1.1c-3.4,0-6.8,0-10.1,0c-1.4,0-2.4-1.1-2.5-2.7
	c0-3.3,0-6.6,0-9.9c0,0,0,0,0,0c0-3.3,0-6.6,0-9.9c0-1.1,0.6-1.9,1.6-2.4c1-0.4,1.9-0.2,2.7,0.5c0.7,0.6,0.9,1.3,0.9,2.2
	c0,5.4,0,10.7,0,16.1c0,0.8,0.2,1.1,1,1c2.2,0,4.4-0.1,6.6,0C32.6,51.3,33.6,53.5,32.5,55.2z M40.6,53.8c0,1.2-0.9,2.3-2.1,2.4
	c-1.3,0.2-2.4-0.5-2.9-1.7c-0.1-0.3-0.1-0.6-0.1-0.9c0-6.7,0-13.4,0-20.1c0-1.3,0.9-2.3,2.2-2.6c1.2-0.2,2.4,0.6,2.8,1.8
	c0.1,0.4,0.1,0.8,0.1,1.3c0,3.2,0,6.4,0,9.5c0,0,0,0,0,0C40.6,47.1,40.6,50.5,40.6,53.8z M64.5,53.6c0,1.3-0.8,2.3-1.9,2.6
	c-1.1,0.3-2.2-0.1-3-1.2c-3.2-4.3-6.3-8.6-9.5-13c-0.1-0.2-0.3-0.4-0.6-0.8c0,4.1,0,8,0,11.8c0,0.4,0,0.9-0.1,1.3
	c-0.3,1.2-1.5,2-2.8,1.9c-1.2-0.1-2.2-1.1-2.2-2.4c0-6.8,0-13.5,0-20.3c0-1.1,0.7-1.9,1.7-2.3c1.1-0.4,2-0.1,2.8,0.9
	c1.3,1.7,2.5,3.4,3.8,5.1c2.1,2.9,4.2,5.7,6.3,8.6c0.3-0.3,0.2-0.6,0.2-0.8c0-3.7,0-7.4,0-11.1c0-2.1,1.8-3.4,3.6-2.6
	c1.1,0.5,1.6,1.4,1.6,2.6C64.5,40.5,64.6,47,64.5,53.6z M73.2,50.3c0,0.6,0.2,0.8,0.8,0.8c2.1,0,4.2,0,6.3,0c1.8,0,2.8,1.1,2.7,2.8
	c-0.1,1.3-1.1,2.4-2.4,2.4c-3.4,0-6.8,0-10.2,0c-1.4,0-2.4-1.2-2.4-2.7c0-3.3,0-6.6,0-9.8c0-3.2,0-6.4,0-9.6c0-1.9,1.1-2.9,2.9-3
	c3.1,0,6.2,0,9.3,0c1.7,0,2.9,1,2.9,2.6c0,1.6-1.1,2.6-2.8,2.6c-2.1,0-4.2,0-6.2,0c-0.6,0-0.9,0.1-0.8,0.8c0.1,1.1,0.1,2.1,0,3.2
	c0,0.6,0.2,0.8,0.8,0.8c2.1,0,4.3,0,6.4,0c1.1,0,2,0.4,2.5,1.5c0.4,0.9,0.4,1.8-0.2,2.7c-0.5,0.8-1.3,1.1-2.3,1.1
	c-2.1,0-4.3,0-6.4,0c-0.6,0-0.8,0.2-0.8,0.8C73.3,48.2,73.3,49.2,73.2,50.3z"/>
</svg>
