<?xml version="1.0" encoding="utf-8"?>
<!-- Generator: Adobe Illustrator 25.0.0, SVG Export Plug-In . SVG Version: 6.00 Build 0)  -->
<svg version="1.1" id="圖層_1" xmlns="http://www.w3.org/2000/svg" xmlns:xlink="http://www.w3.org/1999/xlink" x="0px" y="0px"
	 viewBox="0 0 62.53 21.79" style="enable-background:new 0 0 62.53 21.79;" xml:space="preserve">
<style type="text/css">
	.st0{fill:#FFFFFF;}
	.st1{fill:#FFFFFF;stroke:#FFFFFF;stroke-width:0.1;stroke-miterlimit:10;}
</style>
<path class="st0" d="M27.39,12.75h-1.2v-4.2c0-0.55-0.13-1.06-0.4-1.51c-0.27-0.46-0.63-0.82-1.09-1.09
	c-0.46-0.27-0.96-0.4-1.51-0.4h-0.65v7.2h-1.2v-8.4h1.85c0.76,0,1.46,0.19,2.09,0.56s1.14,0.87,1.51,1.48
	c0.37-0.61,0.87-1.1,1.51-1.48s1.33-0.56,2.09-0.56h1.85v8.4h-1.2v-7.2h-0.65c-0.55,0-1.05,0.13-1.51,0.4
	c-0.45,0.27-0.81,0.63-1.09,1.09C27.53,7.5,27.39,8,27.39,8.55V12.75z"/>
<path class="st0" d="M43.25,4.35l-0.01,4.2c0,0.58-0.11,1.13-0.32,1.64c-0.22,0.51-0.52,0.95-0.9,1.34
	c-0.38,0.38-0.83,0.68-1.34,0.9c-0.51,0.22-1.05,0.32-1.63,0.32h-0.89c-0.58,0-1.12-0.11-1.63-0.32s-0.95-0.52-1.34-0.91
	c-0.38-0.39-0.68-0.83-0.9-1.34c-0.22-0.51-0.32-1.05-0.32-1.63v-4.2h1.2v4.2c0,0.55,0.13,1.05,0.4,1.51
	c0.27,0.45,0.63,0.81,1.09,1.09c0.46,0.27,0.96,0.41,1.5,0.41h0.89c0.55,0,1.05-0.14,1.51-0.41c0.45-0.27,0.81-0.63,1.08-1.09
	c0.27-0.45,0.4-0.95,0.4-1.51v-4.2H43.25z"/>
<path class="st0" d="M46.18,12.75h-1.2v-8.4h1.2V12.75z M53.85,12.75h-1.2v-3.6h-5.87v-1.2h5.87v-3.6h1.2V12.75z"/>
<path class="st0" d="M59.5,11.74c-0.01-0.03-0.01-0.07-0.02-0.1c-0.04-0.23-0.09-0.48-0.16-0.74c-0.06-0.26-0.15-0.53-0.24-0.8
	c-0.05-0.14-0.1-0.27-0.16-0.41c-0.03-0.07-0.06-0.14-0.09-0.2c-0.03-0.07-0.06-0.14-0.1-0.2c-0.03-0.07-0.07-0.13-0.1-0.2
	l-0.05-0.1l-0.06-0.1l-0.06-0.1c-0.02-0.03-0.04-0.06-0.06-0.1c-0.04-0.06-0.08-0.12-0.12-0.19l-0.07-0.1l-0.06-0.1
	c-0.05-0.07-0.09-0.14-0.14-0.22c-0.04-0.08-0.08-0.15-0.12-0.23c-0.04-0.08-0.07-0.16-0.11-0.24c-0.03-0.08-0.06-0.16-0.09-0.24
	c-0.02-0.08-0.05-0.16-0.07-0.25c-0.02-0.08-0.04-0.16-0.05-0.25c-0.01-0.04-0.01-0.08-0.02-0.12c0-0.04-0.01-0.08-0.01-0.12
	c-0.03-0.33,0-0.65,0.06-0.93c0.06-0.29,0.16-0.55,0.27-0.78c0.11-0.23,0.23-0.41,0.36-0.57c0.08-0.09,0.1-0.1,0.08-0.12
	c-0.04-0.04-0.66,0.09-0.97,0.2c-0.42,0.15-0.71,0.37-1.02,0.65c-0.32,0.28-0.56,0.62-0.74,1.01c-0.18,0.39-0.27,0.83-0.27,1.31
	v2.31c0,0.47,0.09,0.91,0.27,1.3c0.18,0.39,0.43,0.72,0.74,1.01c0.32,0.28,0.69,0.5,1.1,0.65c0.42,0.15,0.79,0.23,1.27,0.23
	c0.31,0,0.82-0.01,0.88-0.1C59.71,12.63,59.57,12.16,59.5,11.74z"/>
<path class="st0" d="M62.26,6.09c-0.18-0.39-0.43-0.72-0.75-1.01c-0.32-0.28-0.69-0.5-1.11-0.65c-0.42-0.15-0.53-0.21-1.01-0.23
	c0,0-0.05,0-0.09,0.02c-0.11,0.04-0.16,0.13-0.22,0.24c0,0,0,0,0,0.01C59,4.65,58.93,4.85,58.86,5.07
	c-0.07,0.22-0.12,0.46-0.14,0.72c-0.02,0.25-0.02,0.52,0.03,0.79c0.01,0.07,0.03,0.13,0.04,0.2c0.02,0.07,0.04,0.13,0.05,0.2
	c0.02,0.07,0.05,0.13,0.07,0.2c0.03,0.07,0.05,0.13,0.08,0.2c0.03,0.06,0.06,0.13,0.1,0.19c0.04,0.06,0.07,0.13,0.11,0.19
	c0.04,0.06,0.08,0.12,0.12,0.19l0.13,0.2c0.04,0.06,0.09,0.14,0.13,0.21c0.02,0.04,0.04,0.07,0.07,0.11l0.06,0.11l0.06,0.11
	c0.02,0.04,0.04,0.07,0.05,0.11c0.04,0.07,0.07,0.15,0.1,0.22c0.07,0.15,0.13,0.3,0.18,0.45c0.05,0.15,0.1,0.3,0.14,0.45
	c0.08,0.3,0.14,0.6,0.17,0.88c0.04,0.28,0.05,0.55,0.05,0.8c0,0.06,0,0.12,0,0.18c0,0.18-0.02,0.34-0.03,0.49
	c-0.02,0.18-0.11,0.37-0.06,0.38c0.06,0.01,0.19-0.03,0.3-0.08c0.4-0.2,0.51-0.28,0.83-0.57c0.32-0.28,0.57-0.61,0.75-1.01
	c0.18-0.39,0.27-0.82,0.27-1.3V7.4C62.53,6.92,62.44,6.49,62.26,6.09z"/>
<g>
	<g>
		<path class="st1" d="M22.89,19.58c-1.18,0-1.55-0.99-1.55-1.75c0-1.2,0.77-1.76,1.57-1.76c0.57,0,0.99,0.25,1.24,0.73
			c0.05,0.1,0.09,0.19,0.11,0.25c0.03,0.19-0.19,0.22-0.23,0.07c-0.01-0.05-0.07-0.16-0.09-0.21c-0.19-0.4-0.53-0.63-1-0.63
			c-0.56,0-1.37,0.36-1.36,1.54c0,0.97,0.55,1.55,1.3,1.55c0.54,0,0.91-0.26,1.12-0.72c0.04-0.1,0.07-0.19,0.09-0.25
			c0.02-0.06,0.1-0.08,0.16-0.05c0.06,0.03,0.07,0.09,0.04,0.17C24.17,18.88,23.88,19.58,22.89,19.58z"/>
		<path class="st1" d="M24.81,17.82c0-0.72,0.34-1.75,1.58-1.75c1.26,0,1.58,1.06,1.58,1.76c0,0.73-0.34,1.76-1.58,1.76
			C25.13,19.58,24.81,18.53,24.81,17.82z M25.43,16.68c-0.28,0.32-0.37,0.74-0.37,1.13c0,1.23,0.81,1.58,1.32,1.59
			c0.51,0,1.33-0.34,1.32-1.57c0-1.12-0.69-1.57-1.32-1.57C26.27,16.26,25.78,16.29,25.43,16.68z"/>
		<path class="st1" d="M29.06,16.33c-0.17,0-0.25,0.13-0.25,0.28v1.06l1.58,0c0.12,0,0.09,0.2,0,0.2h-1.57v1.58
			c0,0.12-0.22,0.14-0.22-0.01l0-2.88c0-0.23,0.17-0.44,0.42-0.44l1.57,0c0.14,0,0.14,0.21,0.01,0.21L29.06,16.33L29.06,16.33z"/>
		<path class="st1" d="M31.7,16.33c-0.17,0-0.25,0.13-0.25,0.28v1.06l1.58,0c0.12,0,0.09,0.2,0,0.2h-1.57v1.58
			c0,0.12-0.22,0.14-0.22-0.01l0-2.88c0-0.23,0.17-0.44,0.42-0.44l1.57,0c0.14,0,0.14,0.21,0.01,0.21L31.7,16.33L31.7,16.33z"/>
		<path class="st1" d="M33.89,19.13v-2.57c0-0.17,0.09-0.45,0.43-0.45h1.77c0.09,0.02,0.12,0.19,0,0.21l-1.76,0
			c-0.13,0-0.23,0.1-0.23,0.27v1.07h1.86c0.1,0,0.11,0.21,0,0.21h-1.86v1.19c0,0.17,0.04,0.25,0.23,0.25h1.83
			c0.08,0,0.1,0.21,0,0.21h-1.86C34.06,19.52,33.89,19.41,33.89,19.13z"/>
		<path class="st1" d="M36.79,19.13v-2.57c0-0.17,0.1-0.45,0.43-0.45h1.77c0.09,0.02,0.12,0.19,0,0.21l-1.76,0
			c-0.13,0-0.23,0.1-0.23,0.27v1.07h1.86c0.1,0,0.11,0.21,0,0.21h-1.86v1.19c0,0.17,0.04,0.25,0.23,0.25h1.83
			c0.08,0,0.1,0.21,0,0.21h-1.86C36.96,19.52,36.79,19.41,36.79,19.13z"/>
		<path class="st1" d="M43.71,19.5c-0.03,0.04-0.09,0.06-0.16,0.01c-0.21-0.13-0.51-0.47-0.69-0.72c-0.16-0.21-0.37-0.51-0.47-0.61
			c-0.14-0.13-0.28-0.24-0.51-0.24h-0.66l0,1.49c0,0.13-0.22,0.15-0.22,0.02l0-2.9c0-0.25,0.15-0.42,0.44-0.42h1
			c0.29,0,0.52,0.06,0.68,0.18c0.23,0.17,0.33,0.42,0.33,0.71c0,0.47-0.31,0.85-1.04,0.91c0.2,0.15,0.31,0.3,0.46,0.51
			c0.23,0.32,0.53,0.66,0.84,0.9C43.75,19.39,43.74,19.47,43.71,19.5L43.71,19.5z M43.2,17.02c0-0.32-0.13-0.49-0.33-0.59
			c-0.21-0.1-0.44-0.09-0.65-0.09h-0.76c-0.16,0-0.24,0.08-0.24,0.25l0,1.13l0.99,0c0.17,0,0.41-0.02,0.56-0.08
			C42.98,17.55,43.2,17.4,43.2,17.02L43.2,17.02L43.2,17.02z"/>
		<path class="st1" d="M44.07,17.82c0-0.72,0.34-1.75,1.58-1.75c1.26,0,1.58,1.06,1.58,1.76c0,0.73-0.34,1.76-1.58,1.76
			C44.4,19.58,44.07,18.53,44.07,17.82z M44.7,16.68c-0.28,0.32-0.37,0.74-0.37,1.13c0,1.23,0.81,1.58,1.32,1.59
			c0.51,0,1.33-0.34,1.32-1.57c0-1.12-0.69-1.57-1.32-1.57C45.54,16.26,45.04,16.29,44.7,16.68z"/>
		<path class="st1" d="M49.97,18.42h-1.75l-0.46,1.07c-0.04,0.1-0.27,0.04-0.21-0.1l1.4-3.3c0.04-0.1,0.19-0.12,0.26,0.02l1.46,3.26
			c0.07,0.15-0.17,0.21-0.2,0.13L49.97,18.42z M49.04,16.4l-0.75,1.81h1.61l-0.81-1.81C49.07,16.38,49.05,16.37,49.04,16.4z"/>
		<path class="st1" d="M50.87,18.51c-0.01-0.11,0.09-0.13,0.13-0.13c0.06,0,0.11,0.05,0.12,0.11c0.01,0.13,0.04,0.33,0.14,0.49
			c0.22,0.36,0.64,0.38,0.86,0.38c0.52,0,0.99-0.23,0.99-0.74c0-0.29-0.15-0.44-0.35-0.54c-0.18-0.09-0.42-0.17-0.62-0.21
			c-0.25-0.06-0.52-0.11-0.74-0.24c-0.22-0.13-0.38-0.33-0.38-0.68c0-0.47,0.36-0.88,1.08-0.88c0.36,0,0.75,0.09,0.96,0.39
			c0.14,0.21,0.16,0.38,0.17,0.54c-0.01,0.11-0.23,0.12-0.24,0.01c0-0.17-0.09-0.72-0.87-0.73c-0.52,0-0.87,0.26-0.87,0.65
			c0,1.07,2.09,0.37,2.09,1.67c0,0.37-0.25,0.98-1.2,0.98C51.48,19.57,50.96,19.34,50.87,18.51z"/>
		<path class="st1" d="M54.99,19.44c0,0.07-0.06,0.1-0.11,0.1c-0.06,0-0.12-0.03-0.12-0.09v-3.1h-1.02c-0.08,0-0.11-0.06-0.11-0.12
			c0-0.06,0.04-0.11,0.11-0.11h2.29c0.08,0,0.12,0.07,0.11,0.12s-0.04,0.11-0.11,0.11h-1.04V19.44z"/>
		<path class="st1" d="M56.58,19.13v-2.57c0-0.17,0.09-0.45,0.43-0.45h1.77c0.09,0.02,0.12,0.19,0,0.21l-1.76,0
			c-0.13,0-0.23,0.1-0.23,0.27v1.07h1.86c0.1,0,0.11,0.21,0,0.21H56.8v1.19c0,0.17,0.04,0.25,0.23,0.25h1.83c0.08,0,0.1,0.21,0,0.21
			H57C56.76,19.52,56.58,19.41,56.58,19.13z"/>
		<path class="st1" d="M62.18,19.5c-0.03,0.04-0.09,0.06-0.16,0.01c-0.21-0.13-0.51-0.47-0.69-0.72c-0.16-0.21-0.37-0.51-0.47-0.61
			c-0.14-0.13-0.28-0.24-0.51-0.24h-0.66l0,1.49c0,0.13-0.22,0.15-0.22,0.02l0-2.9c0-0.25,0.15-0.42,0.44-0.42h1
			c0.29,0,0.52,0.06,0.68,0.18c0.23,0.17,0.33,0.42,0.33,0.71c0,0.47-0.31,0.85-1.04,0.91c0.2,0.15,0.31,0.3,0.46,0.51
			c0.23,0.32,0.53,0.66,0.84,0.9C62.22,19.39,62.21,19.47,62.18,19.5L62.18,19.5z M61.67,17.02c0-0.32-0.13-0.49-0.33-0.59
			c-0.21-0.1-0.44-0.09-0.65-0.09h-0.76c-0.16,0-0.24,0.08-0.24,0.25l0,1.13l0.99,0c0.17,0,0.41-0.02,0.56-0.08
			C61.45,17.55,61.68,17.4,61.67,17.02L61.67,17.02L61.67,17.02z"/>
	</g>
</g>
<g>
	<path class="st0" d="M6.06,13.48c0,1.57-0.1,2.81-0.31,3.76c-0.47,2.06-3.23,3.54-5.5,3.91c1.31-1.35,1.52-1.52,2.06-2.82
		c2.26-0.31,2.76-2.29,2.76-4.85H6.06z"/>
	<path class="st0" d="M5.25,3.83c0.41,0.96,0.26,0.71,0.81,1.51C4.17,5.05,2.28,4.4,1.76,1.29C2.4,1.71,2.71,2,3.22,2.26
		C3.85,3.37,3.85,3.37,5.25,3.83z"/>
	<path class="st0" d="M5.25,9.27c0.41,0.96,0.26,0.71,0.81,1.51c-1.89-0.29-3.77-0.94-4.3-4.05C2.4,7.15,2.71,7.44,3.22,7.7
		C3.85,8.81,3.85,8.81,5.25,9.27z"/>
	<path class="st0" d="M12.08,7.65h0.98c0,1.49-0.04,3.12,0.13,4.07c0.43,2.39,1.13,3.14,1.85,4.39c0.41,0.7,0.98,1.48,1.92,2.42
		c0.17,1.3,0.33,1.64,0.48,2.61c-1.2-0.62-2.32-1.65-3.16-3c-0.89-1.44-1.92-3.15-2.07-5.51C12.13,10.96,12.08,9.31,12.08,7.65z"/>
	<polygon class="st0" points="8.54,4.26 8.54,0.47 9.84,0.47 9.84,4.26 15.63,4.26 15.63,4.84 9.84,4.84 9.84,21.15 8.54,21.15 
		8.54,4.84 8.54,4.84 8.54,4.26 	"/>
</g>
</svg>
