<?xml version="1.0" encoding="utf-8"?>
<!-- Generator: Adobe Illustrator 25.0.0, SVG Export Plug-In . SVG Version: 6.00 Build 0)  -->
<svg version="1.1" id="圖層_1" xmlns="http://www.w3.org/2000/svg" xmlns:xlink="http://www.w3.org/1999/xlink" x="0px" y="0px"
	 viewBox="0 0 62.5 21.8" style="enable-background:new 0 0 62.5 21.8;" xml:space="preserve">
<style type="text/css">
	.st0{stroke:#000000;stroke-width:0.1;stroke-miterlimit:10;}
</style>
<path d="M27.4,12.8h-1.2V8.6c0-0.6-0.1-1.1-0.4-1.5c-0.3-0.5-0.6-0.8-1.1-1.1c-0.5-0.3-1-0.4-1.5-0.4h-0.6v7.2h-1.2V4.4h1.9
	c0.8,0,1.5,0.2,2.1,0.6s1.1,0.9,1.5,1.5c0.4-0.6,0.9-1.1,1.5-1.5s1.3-0.6,2.1-0.6h1.8v8.4H31V5.6h-0.6c-0.5,0-1,0.1-1.5,0.4
	c-0.5,0.3-0.8,0.6-1.1,1.1c-0.3,0.5-0.4,1-0.4,1.5V12.8z"/>
<path d="M43.2,4.3l0,4.2c0,0.6-0.1,1.1-0.3,1.6c-0.2,0.5-0.5,0.9-0.9,1.3c-0.4,0.4-0.8,0.7-1.3,0.9c-0.5,0.2-1,0.3-1.6,0.3h-0.9
	c-0.6,0-1.1-0.1-1.6-0.3s-1-0.5-1.3-0.9c-0.4-0.4-0.7-0.8-0.9-1.3S34,9.1,34,8.5V4.3h1.2v4.2c0,0.6,0.1,1.1,0.4,1.5
	c0.3,0.4,0.6,0.8,1.1,1.1c0.5,0.3,1,0.4,1.5,0.4H39c0.5,0,1-0.1,1.5-0.4c0.5-0.3,0.8-0.6,1.1-1.1C41.9,9.6,42,9.1,42,8.5V4.3
	C42,4.3,43.2,4.3,43.2,4.3z"/>
<path d="M46.2,12.8H45V4.4h1.2V12.8z M53.8,12.8h-1.2V9.1h-5.9V7.9h5.9V4.3h1.2V12.8z"/>
<path d="M59.5,11.7c0,0,0-0.1,0-0.1c0-0.2-0.1-0.5-0.2-0.7c-0.1-0.3-0.2-0.5-0.2-0.8c0-0.1-0.1-0.3-0.2-0.4c0-0.1-0.1-0.1-0.1-0.2
	c0-0.1-0.1-0.1-0.1-0.2c0-0.1-0.1-0.1-0.1-0.2l0-0.1l-0.1-0.1l-0.1-0.1c0,0,0-0.1-0.1-0.1c0-0.1-0.1-0.1-0.1-0.2l-0.1-0.1l-0.1-0.1
	c0-0.1-0.1-0.1-0.1-0.2c0-0.1-0.1-0.2-0.1-0.2c0-0.1-0.1-0.2-0.1-0.2c0-0.1-0.1-0.2-0.1-0.2c0-0.1,0-0.2-0.1-0.2c0-0.1,0-0.2,0-0.2
	c0,0,0-0.1,0-0.1c0,0,0-0.1,0-0.1c0-0.3,0-0.7,0.1-0.9c0.1-0.3,0.2-0.6,0.3-0.8c0.1-0.2,0.2-0.4,0.4-0.6c0.1-0.1,0.1-0.1,0.1-0.1
	c0,0-0.7,0.1-1,0.2c-0.4,0.2-0.7,0.4-1,0.7c-0.3,0.3-0.6,0.6-0.7,1c-0.2,0.4-0.3,0.8-0.3,1.3v2.3c0,0.5,0.1,0.9,0.3,1.3
	s0.4,0.7,0.7,1c0.3,0.3,0.7,0.5,1.1,0.6c0.4,0.1,0.8,0.2,1.3,0.2c0.3,0,0.8,0,0.9-0.1C59.7,12.6,59.6,12.2,59.5,11.7z"/>
<path d="M62.3,6.1c-0.2-0.4-0.4-0.7-0.8-1c-0.3-0.3-0.7-0.5-1.1-0.7c-0.4-0.2-0.5-0.2-1-0.2c0,0,0,0-0.1,0c-0.1,0-0.2,0.1-0.2,0.2
	c0,0,0,0,0,0c-0.1,0.2-0.1,0.4-0.2,0.6c-0.1,0.2-0.1,0.5-0.1,0.7c0,0.2,0,0.5,0,0.8c0,0.1,0,0.1,0,0.2c0,0.1,0,0.1,0,0.2
	c0,0.1,0,0.1,0.1,0.2c0,0.1,0,0.1,0.1,0.2c0,0.1,0.1,0.1,0.1,0.2c0,0.1,0.1,0.1,0.1,0.2s0.1,0.1,0.1,0.2l0.1,0.2
	c0,0.1,0.1,0.1,0.1,0.2c0,0,0,0.1,0.1,0.1l0.1,0.1l0.1,0.1c0,0,0,0.1,0,0.1c0,0.1,0.1,0.1,0.1,0.2c0.1,0.1,0.1,0.3,0.2,0.4
	s0.1,0.3,0.1,0.4c0.1,0.3,0.1,0.6,0.2,0.9c0,0.3,0,0.6,0,0.8c0,0.1,0,0.1,0,0.2c0,0.2,0,0.3,0,0.5c0,0.2-0.1,0.4-0.1,0.4
	c0.1,0,0.2,0,0.3-0.1c0.4-0.2,0.5-0.3,0.8-0.6c0.3-0.3,0.6-0.6,0.8-1c0.2-0.4,0.3-0.8,0.3-1.3V7.4C62.5,6.9,62.4,6.5,62.3,6.1z"/>
<g>
	<g>
		<path class="st0" d="M22.9,19.6c-1.2,0-1.5-1-1.5-1.8c0-1.2,0.8-1.8,1.6-1.8c0.6,0,1,0.2,1.2,0.7c0,0.1,0.1,0.2,0.1,0.2
			c0,0.2-0.2,0.2-0.2,0.1c0,0-0.1-0.2-0.1-0.2c-0.2-0.4-0.5-0.6-1-0.6c-0.6,0-1.4,0.4-1.4,1.5c0,1,0.5,1.5,1.3,1.5
			c0.5,0,0.9-0.3,1.1-0.7c0-0.1,0.1-0.2,0.1-0.2s0.1-0.1,0.2,0s0.1,0.1,0,0.2C24.2,18.9,23.9,19.6,22.9,19.6z"/>
		<path class="st0" d="M24.8,17.8c0-0.7,0.3-1.8,1.6-1.8c1.3,0,1.6,1.1,1.6,1.8c0,0.7-0.3,1.8-1.6,1.8
			C25.1,19.6,24.8,18.5,24.8,17.8z M25.4,16.7c-0.3,0.3-0.4,0.7-0.4,1.1c0,1.2,0.8,1.6,1.3,1.6c0.5,0,1.3-0.3,1.3-1.6
			c0-1.1-0.7-1.6-1.3-1.6C26.3,16.3,25.8,16.3,25.4,16.7z"/>
		<path class="st0" d="M29.1,16.3c-0.2,0-0.2,0.1-0.2,0.3v1.1h1.6c0.1,0,0.1,0.2,0,0.2h-1.6v1.6c0,0.1-0.2,0.1-0.2,0v-2.9
			c0-0.2,0.2-0.4,0.4-0.4h1.6c0.1,0,0.1,0.2,0,0.2H29.1L29.1,16.3z"/>
		<path class="st0" d="M31.7,16.3c-0.2,0-0.2,0.1-0.2,0.3v1.1H33c0.1,0,0.1,0.2,0,0.2h-1.6v1.6c0,0.1-0.2,0.1-0.2,0v-2.9
			c0-0.2,0.2-0.4,0.4-0.4h1.6c0.1,0,0.1,0.2,0,0.2H31.7L31.7,16.3z"/>
		<path class="st0" d="M33.9,19.1v-2.6c0-0.2,0.1-0.5,0.4-0.5h1.8c0.1,0,0.1,0.2,0,0.2h-1.8c-0.1,0-0.2,0.1-0.2,0.3v1.1H36
			c0.1,0,0.1,0.2,0,0.2h-1.9v1.2c0,0.2,0,0.2,0.2,0.2h1.8c0.1,0,0.1,0.2,0,0.2h-1.9C34.1,19.5,33.9,19.4,33.9,19.1z"/>
		<path class="st0" d="M36.8,19.1v-2.6c0-0.2,0.1-0.5,0.4-0.5H39c0.1,0,0.1,0.2,0,0.2h-1.8c-0.1,0-0.2,0.1-0.2,0.3v1.1h1.9
			c0.1,0,0.1,0.2,0,0.2H37v1.2c0,0.2,0,0.2,0.2,0.2h1.8c0.1,0,0.1,0.2,0,0.2h-1.9C37,19.5,36.8,19.4,36.8,19.1z"/>
		<path class="st0" d="M43.7,19.5c0,0-0.1,0.1-0.2,0c-0.2-0.1-0.5-0.5-0.7-0.7c-0.2-0.2-0.4-0.5-0.5-0.6c-0.1-0.1-0.3-0.2-0.5-0.2
			h-0.7v1.5c0,0.1-0.2,0.1-0.2,0v-2.9c0-0.2,0.2-0.4,0.4-0.4h1c0.3,0,0.5,0.1,0.7,0.2c0.2,0.2,0.3,0.4,0.3,0.7c0,0.5-0.3,0.9-1,0.9
			c0.2,0.1,0.3,0.3,0.5,0.5c0.2,0.3,0.5,0.7,0.8,0.9C43.8,19.4,43.7,19.5,43.7,19.5L43.7,19.5z M43.2,17c0-0.3-0.1-0.5-0.3-0.6
			c-0.2-0.1-0.4-0.1-0.7-0.1h-0.8c-0.2,0-0.2,0.1-0.2,0.2v1.1h1c0.2,0,0.4,0,0.6-0.1C43,17.5,43.2,17.4,43.2,17L43.2,17L43.2,17z"/>
		<path class="st0" d="M44.1,17.8c0-0.7,0.3-1.8,1.6-1.8c1.3,0,1.6,1.1,1.6,1.8c0,0.7-0.3,1.8-1.6,1.8
			C44.4,19.6,44.1,18.5,44.1,17.8z M44.7,16.7c-0.3,0.3-0.4,0.7-0.4,1.1c0,1.2,0.8,1.6,1.3,1.6c0.5,0,1.3-0.3,1.3-1.6
			c0-1.1-0.7-1.6-1.3-1.6C45.5,16.3,45,16.3,44.7,16.7z"/>
		<path class="st0" d="M50,18.4h-1.8l-0.5,1.1c0,0.1-0.3,0-0.2-0.1l1.4-3.3c0-0.1,0.2-0.1,0.3,0l1.5,3.3c0.1,0.1-0.2,0.2-0.2,0.1
			L50,18.4z M49,16.4l-0.8,1.8h1.6L49,16.4C49.1,16.4,49,16.4,49,16.4z"/>
		<path class="st0" d="M50.9,18.5c0-0.1,0.1-0.1,0.1-0.1c0.1,0,0.1,0,0.1,0.1c0,0.1,0,0.3,0.1,0.5c0.2,0.4,0.6,0.4,0.9,0.4
			c0.5,0,1-0.2,1-0.7c0-0.3-0.2-0.4-0.3-0.5c-0.2-0.1-0.4-0.2-0.6-0.2c-0.2-0.1-0.5-0.1-0.7-0.2S51,17.3,51,17
			c0-0.5,0.4-0.9,1.1-0.9c0.4,0,0.8,0.1,1,0.4c0.1,0.2,0.2,0.4,0.2,0.5c0,0.1-0.2,0.1-0.2,0c0-0.2-0.1-0.7-0.9-0.7
			c-0.5,0-0.9,0.3-0.9,0.6c0,1.1,2.1,0.4,2.1,1.7c0,0.4-0.2,1-1.2,1C51.5,19.6,51,19.3,50.9,18.5z"/>
		<path class="st0" d="M55,19.4c0,0.1-0.1,0.1-0.1,0.1c-0.1,0-0.1,0-0.1-0.1v-3.1h-1c-0.1,0-0.1-0.1-0.1-0.1c0-0.1,0-0.1,0.1-0.1H56
			c0.1,0,0.1,0.1,0.1,0.1s0,0.1-0.1,0.1h-1V19.4z"/>
		<path class="st0" d="M56.6,19.1v-2.6c0-0.2,0.1-0.5,0.4-0.5h1.8c0.1,0,0.1,0.2,0,0.2H57c-0.1,0-0.2,0.1-0.2,0.3v1.1h1.9
			c0.1,0,0.1,0.2,0,0.2h-1.9v1.2c0,0.2,0,0.2,0.2,0.2h1.8c0.1,0,0.1,0.2,0,0.2H57C56.8,19.5,56.6,19.4,56.6,19.1z"/>
		<path class="st0" d="M62.2,19.5c0,0-0.1,0.1-0.2,0c-0.2-0.1-0.5-0.5-0.7-0.7c-0.2-0.2-0.4-0.5-0.5-0.6c-0.1-0.1-0.3-0.2-0.5-0.2
			h-0.7v1.5c0,0.1-0.2,0.1-0.2,0v-2.9c0-0.2,0.2-0.4,0.4-0.4h1c0.3,0,0.5,0.1,0.7,0.2c0.2,0.2,0.3,0.4,0.3,0.7c0,0.5-0.3,0.9-1,0.9
			c0.2,0.1,0.3,0.3,0.5,0.5c0.2,0.3,0.5,0.7,0.8,0.9C62.2,19.4,62.2,19.5,62.2,19.5L62.2,19.5z M61.7,17c0-0.3-0.1-0.5-0.3-0.6
			c-0.2-0.1-0.4-0.1-0.7-0.1h-0.8c-0.2,0-0.2,0.1-0.2,0.2v1.1h1c0.2,0,0.4,0,0.6-0.1C61.5,17.5,61.7,17.4,61.7,17L61.7,17L61.7,17z"
			/>
	</g>
</g>
<g>
	<path d="M6.1,13.5c0,1.6-0.1,2.8-0.3,3.8c-0.5,2.1-3.2,3.5-5.5,3.9c1.3-1.4,1.5-1.5,2.1-2.8C4.6,18,5.1,16,5.1,13.5H6.1z"/>
	<path d="M5.2,3.8c0.4,1,0.3,0.7,0.8,1.5C4.2,5.1,2.3,4.4,1.8,1.3c0.6,0.4,1,0.7,1.5,1C3.8,3.4,3.8,3.4,5.2,3.8z"/>
	<path d="M5.2,9.3c0.4,1,0.3,0.7,0.8,1.5c-1.9-0.3-3.8-0.9-4.3-4.1c0.6,0.4,1,0.7,1.5,1C3.8,8.8,3.8,8.8,5.2,9.3z"/>
	<path d="M12.1,7.7h1c0,1.5,0,3.1,0.1,4.1c0.4,2.4,1.1,3.1,1.9,4.4c0.4,0.7,1,1.5,1.9,2.4c0.2,1.3,0.3,1.6,0.5,2.6
		c-1.2-0.6-2.3-1.6-3.2-3c-0.9-1.4-1.9-3.1-2.1-5.5C12.1,11,12.1,9.3,12.1,7.7z"/>
	<polygon points="8.5,4.3 8.5,0.5 9.8,0.5 9.8,4.3 15.6,4.3 15.6,4.8 9.8,4.8 9.8,21.1 8.5,21.1 8.5,4.8 8.5,4.8 	"/>
</g>
</svg>
