<svg width="90" height="90" viewBox="0 0 90 90" fill="none" xmlns="http://www.w3.org/2000/svg">
<g clip-path="url(#clip0_202_313)">
<path d="M46.0219 46.2501C38.3837 46.2501 31.0403 40.8288 29.305 33.9085C29.2471 33.6829 29.013 32.4947 28.8036 31.356C28.3409 28.831 28.3794 28.7815 28.5915 28.5037L28.7926 28.2396L29.1287 28.2314H63.2402L63.4523 28.5037C63.6644 28.7815 63.7029 28.831 63.2402 31.356C63.0309 32.4947 62.7967 33.6829 62.7389 33.9085C61.0036 40.8288 53.6601 46.2501 46.0219 46.2501ZM29.8972 29.6066C30.0872 30.8114 30.5555 33.2401 30.6409 33.5729C32.2302 39.9101 38.987 44.8748 46.0219 44.8748C53.0569 44.8748 59.8136 39.9101 61.403 33.5729C61.4856 33.2401 61.9566 30.8086 62.1467 29.6066H29.8972Z" fill="white"/>
<path d="M68.0357 46.2501C67.8925 46.2501 67.7493 46.2061 67.6253 46.1153C67.3196 45.8898 67.2562 45.458 67.4848 45.1526C74.3876 35.8971 73.0682 26.7296 73.0517 26.6388L73.0434 26.5673C72.5724 16.7287 64.7662 9.48656 64.6863 9.41505C64.4053 9.15925 64.386 8.72467 64.6422 8.44411C64.8984 8.16356 65.3336 8.1443 65.6145 8.4001C65.9534 8.70816 73.9 16.0686 74.4151 26.4656C74.5281 27.2302 75.6905 36.4472 68.5839 45.9751C68.4517 46.1538 68.2451 46.2501 68.0357 46.2501Z" fill="white"/>
<path d="M84.7582 44.4678L83.381 44.41C83.5545 40.375 79.6321 39.3518 79.0757 39.228H72.465V37.8528H79.2107L79.2741 37.8638C81.2545 38.2434 84.9455 40.111 84.7582 44.4678Z" fill="white"/>
<path d="M82.662 57.7666C82.3205 57.7666 82.0258 57.5135 81.9789 57.1697C81.9293 56.7929 82.1938 56.4491 82.5711 56.3996C84.9703 56.0833 86.6808 55.2168 87.6642 53.8168C88.9671 51.9602 88.5787 49.7488 88.5346 49.5232C87.7441 46.858 85.3862 45.744 84.9069 45.5432C84.2211 45.513 80.5246 45.3617 77.2164 45.5487C74.0488 45.7275 72.7955 50.7307 72.7845 50.783C72.6936 51.1516 72.3217 51.3799 71.9526 51.2891C71.5835 51.2011 71.3549 50.8298 71.4458 50.4612C71.5064 50.2136 72.9497 44.4128 77.1393 44.1762C80.8606 43.9672 85.0474 44.1735 85.0887 44.1762L85.1907 44.1817L85.2871 44.2147C85.4303 44.2642 88.7963 45.4992 89.8678 49.1657L89.8788 49.2097C89.9063 49.3307 90.5068 52.1693 88.7963 54.609C87.5843 56.3363 85.5515 57.398 82.7557 57.7666C82.7226 57.7638 82.6923 57.7666 82.662 57.7666Z" fill="white"/>
<path d="M74.5749 56.8534C74.2058 56.8534 73.9 56.5619 73.8863 56.1905C73.878 55.976 73.6246 50.8848 69.088 50.8848C64.5513 50.8848 64.2979 55.976 64.2897 56.1905C64.2759 56.5701 63.9453 56.8727 63.5762 56.8507C63.1961 56.8369 62.9014 56.5179 62.9124 56.141C62.9923 53.8471 64.3888 49.5095 69.0852 49.5095C73.7816 49.5095 75.1781 53.8471 75.258 56.141C75.2718 56.5206 74.9743 56.8397 74.5942 56.8534C74.5914 56.8534 74.5832 56.8534 74.5749 56.8534Z" fill="white"/>
<path d="M82.3811 80.871H9.73436C6.137 80.871 3.20898 77.9472 3.20898 74.355V66.4885C3.20898 62.8963 6.137 59.9725 9.73436 59.9725H82.3811C85.9785 59.9725 88.9065 62.8963 88.9065 66.4885V74.355C88.9065 77.9472 85.9812 80.871 82.3811 80.871ZM9.73436 61.3477C6.89448 61.3477 4.58623 63.6527 4.58623 66.4885V74.355C4.58623 77.1908 6.89724 79.4957 9.73436 79.4957H82.3811C85.221 79.4957 87.5292 77.1908 87.5292 74.355V66.4885C87.5292 63.6527 85.221 61.3477 82.3811 61.3477H9.73436Z" fill="white"/>
<path d="M56.219 90H36.0341C33.0565 90 30.6326 87.5823 30.6326 84.6062V75.8981C30.6326 72.9247 33.0565 70.5043 36.0341 70.5043H56.219C59.1966 70.5043 61.6205 72.9247 61.6205 75.8981V84.6062C61.6205 87.5823 59.1994 90 56.219 90ZM36.0369 71.8823C33.8195 71.8823 32.0126 73.6839 32.0126 75.9008V84.609C32.0126 86.8232 33.8168 88.6275 36.0369 88.6275H56.2218C58.4391 88.6275 60.2461 86.8259 60.2461 84.609V75.9008C60.2461 73.6866 58.4419 71.8823 56.2218 71.8823H36.0369Z" fill="white"/>
<path d="M55.6213 80.8848H36.4225C36.0369 80.8848 35.7202 80.5684 35.7202 80.1834C35.7202 79.7983 36.0369 79.482 36.4225 79.482H55.6213C56.0069 79.482 56.3237 79.7983 56.3237 80.1834C56.3264 80.5712 56.0097 80.8848 55.6213 80.8848Z" fill="white"/>
<path d="M51.6851 11.6898H40.4331C40.0474 11.6898 39.7307 11.3734 39.7307 10.9884C39.7307 10.6033 40.0474 10.287 40.4331 10.287H51.6851C52.0708 10.287 52.3875 10.6033 52.3875 10.9884C52.3875 11.3734 52.0708 11.6898 51.6851 11.6898Z" fill="white"/>
<path d="M46.7959 71.1946H45.5647V80.0431H46.7959V71.1946Z" fill="white"/>
<path d="M57.274 52.6093C56.8608 52.6093 56.5247 52.271 56.5247 51.8612V49.0969C56.5247 48.6843 56.8635 48.3488 57.274 48.3488C57.6871 48.3488 58.0232 48.6871 58.0232 49.0969V51.8584C58.0259 52.271 57.6871 52.6093 57.274 52.6093Z" fill="white"/>
<path d="M51.7788 57.8986C51.3656 57.8986 51.0296 57.5603 51.0296 57.1505V54.389C51.0296 53.9764 51.3684 53.6408 51.7788 53.6408C52.192 53.6408 52.528 53.9791 52.528 54.389V57.1505C52.5308 57.5603 52.192 57.8986 51.7788 57.8986Z" fill="white"/>
<path d="M46.0219 24.9005C42.9066 24.9005 41.2897 22.5736 40.8683 21.3441L40.838 21.2533L40.7774 20.0623C40.0144 19.46 37.6455 17.5786 36.0204 16.2446C35.1032 15.491 33.7121 14.4513 32.2412 13.3511C30.6051 12.1271 28.9138 10.8618 27.7872 9.92115C25.49 8.00954 25.0989 4.62364 25.0823 4.48061L25.0796 4.40634V0H66.9643L66.9615 4.48336C66.945 4.62639 66.5538 8.01229 64.2566 9.9239C63.13 10.8618 61.4388 12.1298 59.8026 13.3538C58.3317 14.454 56.9435 15.4965 56.0262 16.2474C54.3983 17.5814 52.0295 19.4627 51.2692 20.0651L51.2086 21.2561L51.1783 21.3468C50.7541 22.5763 49.1372 24.9005 46.0219 24.9005ZM42.2042 20.981C42.386 21.4266 43.3831 23.5253 46.0219 23.5253C48.658 23.5253 49.6551 21.4321 49.8396 20.981L49.9195 19.3747L50.1647 19.1822C50.195 19.1574 53.2056 16.781 55.1475 15.1884C56.0896 14.4155 57.4888 13.3676 58.9735 12.2563C60.5959 11.0434 62.2706 9.78638 63.3724 8.87045C65.1298 7.40717 65.543 4.6979 65.587 4.37059V1.37526H26.4568V4.36784C26.5009 4.6924 26.9113 7.40442 28.6714 8.8677C29.7705 9.78363 31.448 11.0379 33.0703 12.2536C34.555 13.3648 35.9543 14.4128 36.8963 15.1857C38.8382 16.7782 41.8489 19.1574 41.8792 19.1794L42.1243 19.372L42.2042 20.981Z" fill="white"/>
<path d="M24.0108 46.2501C23.8015 46.2501 23.5921 46.1538 23.4572 45.9723C16.3534 36.4445 17.5158 27.2275 17.6287 26.4628C18.1438 16.0631 26.0932 8.70542 26.4293 8.39736C26.7102 8.14156 27.1454 8.16081 27.4016 8.44136C27.6578 8.72192 27.6385 9.1565 27.3575 9.4123C27.2776 9.48381 19.4742 16.726 19.0004 26.5646L18.9922 26.6389C18.9784 26.7296 17.659 35.8971 24.5617 45.1527C24.7876 45.458 24.727 45.887 24.4212 46.1153C24.2973 46.2061 24.1541 46.2501 24.0108 46.2501Z" fill="white"/>
<path d="M7.28836 44.4678C7.10105 40.111 10.7921 38.2434 12.7698 37.8638L12.8992 37.8528H19.5816V39.228H12.9709C12.42 39.3518 8.49207 40.3723 8.66285 44.41L7.28836 44.4678Z" fill="white"/>
<path d="M7.33795 57.7666C7.30765 57.7666 7.27736 57.7638 7.24706 57.7611C4.45126 57.3925 2.41845 56.3308 1.20647 54.6035C-0.50406 52.1638 0.0964173 49.3252 0.123962 49.2042L0.13498 49.1602C1.20647 45.4937 4.57245 44.2615 4.71569 44.2092L4.80934 44.1762L4.91125 44.1707C4.95257 44.168 9.13939 43.9617 12.8607 44.1707C17.0503 44.4073 18.4964 50.2081 18.5542 50.4557C18.6424 50.8243 18.4165 51.1956 18.0446 51.2863C17.6755 51.3744 17.3037 51.1488 17.2128 50.7802C17.1963 50.7115 15.943 45.7248 12.7808 45.546C9.47268 45.359 5.77616 45.5102 5.0903 45.5405C4.61652 45.7413 2.25593 46.8525 1.46264 49.5205C1.42132 49.7405 1.0357 51.9795 2.34132 53.8278C3.32467 55.2196 5.03521 56.0833 7.4261 56.3968C7.80346 56.4463 8.06789 56.7929 8.01831 57.167C7.97424 57.5163 7.67951 57.7666 7.33795 57.7666Z" fill="white"/>
<path d="M23.9034 57.7666C23.5343 57.7666 23.2286 57.475 23.2148 57.1037C23.201 56.7241 23.4985 56.4051 23.8786 56.3913C24.0962 56.383 29.192 56.13 29.192 51.5999C29.192 47.0698 24.0935 46.8167 23.8786 46.8085C23.4985 46.7947 23.2038 46.4756 23.2175 46.0961C23.2313 45.7165 23.5481 45.4194 23.9282 45.4332C26.2254 45.513 30.5693 46.9075 30.5693 51.5971C30.5693 56.2868 26.2254 57.6813 23.9282 57.7611C23.9199 57.7666 23.9117 57.7666 23.9034 57.7666Z" fill="white"/>
<path d="M34.7698 52.6093C35.183 52.6093 35.5191 52.271 35.5191 51.8612V49.0969C35.5191 48.6843 35.1803 48.3488 34.7698 48.3488C34.3567 48.3488 34.0206 48.6871 34.0206 49.0969V51.8584C34.0206 52.271 34.3567 52.6093 34.7698 52.6093Z" fill="white"/>
<path d="M40.265 57.8986C40.6782 57.8986 41.0142 57.5603 41.0142 57.1505V54.389C41.0142 53.9764 40.6754 53.6408 40.265 53.6408C39.8519 53.6408 39.5158 53.9791 39.5158 54.389V57.1505C39.5158 57.5603 39.8519 57.8986 40.265 57.8986Z" fill="white"/>
<path d="M46.1293 52.6093C45.7162 52.6093 45.3801 52.271 45.3801 51.8612V49.0969C45.3801 48.6843 45.7189 48.3488 46.1293 48.3488C46.5425 48.3488 46.8786 48.6871 46.8786 49.0969V51.8584C46.8786 52.271 46.5398 52.6093 46.1293 52.6093Z" fill="white"/>
</g>
<defs>
<clipPath id="clip0_202_313">
<rect width="90" height="90" fill="white"/>
</clipPath>
</defs>
</svg>
