<svg width="128" height="77" viewBox="0 0 128 77" fill="none" xmlns="http://www.w3.org/2000/svg">
<g clip-path="url(#clip0_202_364)">
<path d="M12.0987 23.6289C12.0136 23.6289 11.9284 23.6265 11.8408 23.6215C9.22176 23.4652 8.19768 21.4457 8.02241 20.4012L8.01239 20.2995V16.4986C8.01239 15.4442 8.71598 12.4695 8.7961 12.132L8.82615 12.0378C11.3701 5.9643 15.5465 3.0144 18.6037 1.61016C21.9214 0.0843536 24.6205 0.00248099 24.7332 0H39.3232C40.8255 0 43.7125 0.846017 43.8702 4.05146C44.0405 7.49507 43.8777 19.379 43.8702 19.8851C43.8352 21.1827 42.9638 23.6215 39.9191 23.6215C36.9145 23.6215 35.8579 21.3291 35.7176 20.1159L35.7126 20.0464V11.936C26.9716 17.0072 18.7314 15.5881 16.155 14.9504L16.0798 20.2126L16.0623 20.2821C15.7669 21.4655 14.56 23.6289 12.0987 23.6289ZM9.26432 20.2399C9.33193 20.5376 9.80516 22.257 11.9159 22.3835C13.9966 22.51 14.7127 20.4434 14.8329 20.0414L14.9281 13.2783L15.7393 13.5462C15.8345 13.5785 25.5745 16.6648 35.5849 10.5665L35.7126 10.7725V8.64625H36.9646V20.0067C37.0171 20.359 37.4228 22.3835 39.9191 22.3835C42.5181 22.3835 42.6158 19.9645 42.6183 19.8628C42.6208 19.7487 42.786 7.51988 42.6183 4.11596C42.4806 1.2926 39.4509 1.24049 39.3207 1.24049H24.7482C24.7382 1.24049 22.1717 1.32485 19.0795 2.75886C14.9681 4.66426 11.9134 7.92924 10.003 12.467C9.78763 13.38 9.26432 15.7419 9.26432 16.4986V20.2399Z" fill="white"/>
<path d="M26.1028 42.7946C26.0602 42.7946 26.0176 42.7946 25.9751 42.7946C17.7098 42.7499 13.2955 38.7258 11.0495 35.3591C8.93629 32.1933 8.22268 28.9258 8.05492 27.534C6.46247 27.3008 2.06318 26.162 2.21592 20.7063L2.22092 20.6443C2.22843 20.5922 2.94454 15.4739 8.19013 15.2878L8.2352 16.5283C4.20148 16.6722 3.52794 20.3813 3.46785 20.7758C3.34015 26.1422 8.44052 26.3481 8.65836 26.3531L9.26679 26.3704V26.9733C9.26679 27.1172 10.5137 41.4697 25.9851 41.5566C26.0277 41.5566 26.0677 41.5566 26.1103 41.5566C32.1446 41.5566 36.7617 39.1053 39.8365 34.2724C42.1726 30.598 42.6984 26.8468 42.7034 26.8096L42.7585 26.3928L43.1691 26.2886C43.2342 26.2712 43.3344 26.2513 43.4646 26.229C44.6864 25.9983 48.3997 25.2962 48.3321 21.4109C48.257 17.2007 43.8627 16.5507 43.6749 16.5259L43.8426 15.2953C45.7957 15.5533 49.5114 17.1585 49.5865 21.3886C49.6266 23.6116 48.6601 26.4449 43.8727 27.4124C43.6624 28.5537 42.9337 31.7095 40.9206 34.8951C38.6321 38.5025 34.2103 42.7946 26.1028 42.7946Z" fill="white"/>
<path d="M25.4142 49.8233C20.1586 49.8233 18.0603 45.3476 18.0378 45.3004L17.9827 45.1789V41.0753H19.2347V44.901C19.5802 45.5684 21.5107 48.8433 25.9375 48.5629C30.6598 48.2627 31.9343 46.144 32.6178 45.0052L32.6428 44.963V41.0728H33.8948V45.3103L33.692 45.6403C32.9458 46.8808 31.3959 49.4586 26.0151 49.8009C25.8148 49.8158 25.612 49.8233 25.4142 49.8233Z" fill="white"/>
<path d="M49.4663 77H3.53045L3.45283 76.9802C2.25848 76.6775 0 75.4544 0 73.0032V59.705L0.00500773 59.6654C0.0250386 59.514 0.498269 55.9339 2.96708 52.1628C5.2506 48.6746 9.73753 44.3825 18.138 43.7523C18.4785 43.73 18.784 43.983 18.809 44.3229C18.8341 44.6653 18.5762 44.963 18.2331 44.9878C11.8984 45.4617 7.11598 48.1039 4.0187 52.8352C1.82782 56.1796 1.30451 59.4148 1.25193 59.7844V73.0032C1.25193 74.9185 3.29759 75.638 3.69821 75.762H49.4688C49.8144 75.762 50.0948 76.0399 50.0948 76.3823C50.0948 76.7246 49.8119 77 49.4663 77Z" fill="white"/>
<path d="M45.0345 49.2973C44.8917 49.2973 44.7515 49.2501 44.6338 49.1534C38.7372 44.2708 33.8472 44.9729 33.7996 44.9828C33.4566 45.0324 33.1386 44.8067 33.081 44.4693C33.0259 44.1318 33.2538 43.8143 33.5943 43.7572C33.8147 43.72 39.0653 42.9261 45.4351 48.2007C45.7005 48.419 45.7355 48.811 45.5127 49.074C45.3925 49.2228 45.2147 49.2973 45.0345 49.2973Z" fill="white"/>
<path d="M17.2441 52.8749C17.0338 52.8749 16.831 52.8426 16.6332 52.7756C15.6041 52.4333 15.2385 51.3466 15.2009 51.2225L15.1734 51.1332V45.1367H16.4253V50.9273C16.4954 51.091 16.6958 51.488 17.0363 51.5996C17.4144 51.7212 17.9026 51.4557 18.2456 51.2126C20.3289 49.7265 21.5207 48.7366 21.5332 48.7267L22.3395 49.6769C22.2894 49.719 21.1025 50.704 18.9768 52.2199C18.3658 52.6565 17.7849 52.8749 17.2441 52.8749Z" fill="white"/>
<path d="M34.2128 52.8748C33.672 52.8748 33.0911 52.6565 32.4801 52.2199C30.3543 50.704 29.1675 49.7165 29.1174 49.6744L29.9237 48.7241C29.9362 48.7341 31.128 49.724 33.2112 51.2101C33.5543 51.4557 34.0425 51.7212 34.4206 51.5971C34.7611 51.4855 34.9614 51.091 35.0316 50.9248V45.1342H36.2835V51.1307L36.2559 51.22C36.2184 51.3416 35.8528 52.4283 34.8237 52.7731C34.6259 52.8426 34.4231 52.8748 34.2128 52.8748Z" fill="white"/>
<path d="M26.283 71.4476H26.2204C24.2174 71.4476 22.5898 69.8349 22.5898 67.8501V56.1324C22.5898 54.1476 24.2174 52.535 26.2204 52.535H26.283C28.2861 52.535 29.9136 54.1476 29.9136 56.1324V67.8501C29.9136 69.8324 28.2836 71.4476 26.283 71.4476ZM26.2179 53.7755C24.9059 53.7755 23.8393 54.8324 23.8393 56.1324V67.8501C23.8393 69.1502 24.9059 70.2071 26.2179 70.2071H26.2805C27.5926 70.2071 28.6592 69.1502 28.6592 67.8501V56.1324C28.6592 54.8324 27.5926 53.7755 26.2805 53.7755H26.2179Z" fill="white"/>
<path d="M115.901 23.6289C113.44 23.6289 112.233 21.4655 111.935 20.2796L111.918 20.2101L111.843 14.948C109.266 15.5881 101.026 17.0072 92.2849 11.9336L92.2799 20.1134C92.1397 21.3266 91.083 23.619 88.0784 23.619C85.0337 23.619 84.1649 21.1802 84.1273 19.8901C84.1198 19.3765 83.957 7.49259 84.1273 4.04898C84.2875 0.846017 87.1745 0 88.6768 0H103.252C103.38 0.00248099 106.079 0.0843536 109.396 1.61016C112.454 3.0144 116.63 5.9643 119.171 12.0378L119.201 12.132C119.282 12.467 119.985 15.4417 119.985 16.4986L119.978 20.4012C119.802 21.4457 118.778 23.4627 116.159 23.6215C116.074 23.6265 115.986 23.6289 115.901 23.6289ZM113.167 20.0414C113.285 20.4384 114.008 22.5075 116.084 22.3835C118.187 22.257 118.666 20.5451 118.736 20.2374V16.4986C118.736 15.7394 118.212 13.38 117.997 12.467C113.425 1.61016 103.339 1.24298 103.237 1.24049H88.6768C88.5491 1.24049 85.5194 1.2926 85.3817 4.11348C85.214 7.5174 85.3817 19.7462 85.3817 19.8678C85.3917 20.1159 85.547 22.381 88.0809 22.381C90.5998 22.381 90.9929 20.297 91.0355 20.0042V8.64129H92.2874V10.7675L92.4151 10.5616C102.428 16.6598 112.163 13.5735 112.261 13.5412L113.072 13.2758L113.167 20.0414Z" fill="white"/>
<path d="M101.897 42.7946C93.7897 42.7946 89.3679 38.5025 87.0844 34.8927C85.0713 31.7096 84.3427 28.5537 84.1324 27.41C79.345 26.4424 78.3785 23.6091 78.4185 21.3862C78.4936 17.1561 82.2069 15.5509 84.1624 15.2928L84.3302 16.5234C84.1424 16.5482 79.7481 17.1982 79.673 21.4085C79.6029 25.2912 83.3186 25.9934 84.5405 26.2266C84.6707 26.2514 84.7708 26.2712 84.8359 26.2861L85.2466 26.3903L85.3017 26.8071C85.3067 26.8443 85.8325 30.5956 88.1686 34.2699C91.2408 39.1054 95.8604 41.5541 101.895 41.5541C101.937 41.5541 101.977 41.5541 102.02 41.5541C117.494 41.4698 118.738 27.1172 118.738 26.9709V26.368L119.347 26.3506C119.562 26.3432 124.665 26.1124 124.535 20.7709C124.477 20.3863 123.806 16.6673 119.767 16.5259L119.812 15.2854C125.058 15.4715 125.774 20.5898 125.782 20.6419L125.787 20.7039C125.939 26.1596 121.54 27.2984 119.948 27.5316C119.777 28.9234 119.066 32.1909 116.953 35.3566C114.707 38.7233 110.293 42.7475 102.027 42.7921C101.982 42.7946 101.94 42.7946 101.897 42.7946Z" fill="white"/>
<path d="M102.586 49.8232C102.388 49.8232 102.188 49.8158 101.982 49.8034C96.6016 49.461 95.0517 46.8833 94.3055 45.6428L94.1027 45.3128V41.0753H95.3547V44.9655L95.3797 45.0076C96.0632 46.1464 97.3402 48.2652 102.06 48.5654C106.487 48.8432 108.415 45.5708 108.763 44.9034V41.0777H110.015V45.1813L109.96 45.3029C109.94 45.3475 107.839 49.8232 102.586 49.8232Z" fill="white"/>
<path d="M124.47 77H78.5337C78.1881 77 77.9077 76.7221 77.9077 76.3797C77.9077 76.0374 78.1881 75.7595 78.5337 75.7595H124.304C124.715 75.6354 126.748 74.9259 126.748 73.0006V59.7844C126.693 59.4147 126.16 56.1423 123.956 52.7955C120.856 48.089 116.084 45.4641 109.769 44.9903C109.424 44.9655 109.166 44.6677 109.193 44.3254C109.219 43.983 109.519 43.7299 109.865 43.7547C118.265 44.3849 122.752 48.677 125.035 52.1653C127.504 55.9364 127.977 59.5165 127.998 59.6678L128.003 59.7447V73.0056C128.003 75.4568 125.744 76.6799 124.55 76.9851L124.47 77Z" fill="white"/>
<path d="M82.9655 49.2973C82.7878 49.2973 82.61 49.2204 82.4848 49.074C82.262 48.811 82.2995 48.419 82.5649 48.2007C88.9348 42.9261 94.1854 43.72 94.4057 43.7572C94.7462 43.8143 94.9766 44.1318 94.919 44.4717C94.8614 44.8092 94.5434 45.0374 94.2004 44.9828C94.1253 44.9729 89.2477 44.2857 83.3662 49.1534C83.251 49.2501 83.1083 49.2973 82.9655 49.2973Z" fill="white"/>
<path d="M110.756 52.8748C110.215 52.8748 109.634 52.6565 109.023 52.2199C106.897 50.704 105.711 49.7165 105.661 49.6744L106.467 48.7241C106.479 48.7341 107.671 49.724 109.754 51.2101C110.097 51.4557 110.586 51.7212 110.964 51.5971C111.304 51.4855 111.505 51.091 111.575 50.9248V45.1342H112.827V51.1307L112.799 51.22C112.761 51.3416 112.396 52.4283 111.367 52.7731C111.172 52.8426 110.966 52.8748 110.756 52.8748Z" fill="white"/>
<path d="M93.7873 52.8749C93.5769 52.8749 93.3741 52.8426 93.1763 52.7756C92.1472 52.4333 91.7817 51.3466 91.7441 51.2225L91.7166 51.1332V45.1367H92.9685V50.9273C93.0386 51.091 93.2389 51.488 93.5794 51.5996C93.9575 51.7212 94.4458 51.4557 94.7888 51.2126C96.872 49.7265 98.0639 48.7366 98.0764 48.7267L98.8826 49.6769C98.8325 49.719 97.6457 50.704 95.5199 52.2199C94.909 52.6565 94.3306 52.8749 93.7873 52.8749Z" fill="white"/>
<path d="M101.782 71.4476H101.717C99.7139 71.4476 98.0864 69.8349 98.0864 67.8501V56.1324C98.0864 54.1476 99.7139 52.535 101.717 52.535H101.782C103.785 52.535 105.413 54.1476 105.413 56.1324V67.8501C105.413 69.8324 103.785 71.4476 101.782 71.4476ZM101.717 53.7755C100.405 53.7755 99.3383 54.8324 99.3383 56.1324V67.8501C99.3383 69.1502 100.405 70.2071 101.717 70.2071H101.782C103.094 70.2071 104.161 69.1502 104.161 67.8501V56.1324C104.161 54.8324 103.094 53.7755 101.782 53.7755H101.717Z" fill="white"/>
<path d="M63.7584 77H63.7283C63.5856 76.9951 60.2104 76.8859 56.5673 75.1343C53.177 73.5043 48.9355 70.0979 47.974 63.1189L47.969 63.0345V46.2606H78.6914V62.4639C78.6914 62.6028 78.6714 65.8777 76.8285 69.3238C75.1209 72.5194 71.4728 76.4418 63.7909 76.9975L63.7584 77ZM49.2184 62.9924C49.937 68.1206 52.5786 71.8247 57.073 74.0005C60.308 75.566 63.4053 75.7446 63.7333 75.7595C69.4046 75.3427 73.4283 72.9957 75.6968 68.7879C77.4094 65.6098 77.437 62.4962 77.437 62.4639V47.5011H49.2184V62.9924Z" fill="white"/>
<path d="M77.2918 67.2646C76.9788 67.2646 76.7059 67.0314 76.6708 66.7138C76.6308 66.3739 76.8786 66.0663 77.2217 66.0266C79.9083 65.7239 82.0291 64.6149 83.5214 62.7293C85.9877 59.6132 86.0603 55.3211 85.8825 53.9293C85.6447 52.0933 83.261 51.5624 82.9079 51.4929H78.5312C78.1857 51.4929 77.9052 51.2151 77.9052 50.8727C77.9052 50.5303 78.1857 50.2524 78.5312 50.2524L83.0607 50.2599C83.2109 50.2822 86.7464 50.8727 87.1194 53.7705C87.3172 55.3037 87.2346 60.0424 84.5029 63.4935C82.7953 65.6495 80.3916 66.9173 77.3594 67.2596C77.3393 67.2646 77.3168 67.2646 77.2918 67.2646Z" fill="white"/>
<path d="M78.3084 63.0916C78.2182 63.0916 78.1256 63.0891 78.0329 63.0842C77.6874 63.0668 77.422 62.774 77.4395 62.4317C77.457 62.0893 77.7475 61.8288 78.098 61.8437C79.077 61.8958 79.9359 61.5856 80.657 60.9282C82.0291 59.6753 82.5825 57.4746 82.6175 56.3011C82.6601 54.944 81.7862 54.6538 81.5208 54.5967H78.063C77.7174 54.5967 77.437 54.3188 77.437 53.9764C77.437 53.6341 77.7174 53.3562 78.063 53.3562L81.671 53.3636C82.4598 53.4803 83.932 54.2494 83.8669 56.3408C83.8169 57.9981 83.0557 60.427 81.5033 61.8412C80.5944 62.6723 79.5202 63.0916 78.3084 63.0916Z" fill="white"/>
<path d="M64.512 44.4618C64.1915 44.4618 63.9161 44.2187 63.8886 43.8937C63.8585 43.5513 64.1139 43.2511 64.4594 43.2238C65.8416 43.1072 67.0009 42.4721 67.5617 41.5268C68.065 40.6783 68.0675 39.6512 67.5692 38.5595C67.3339 38.041 66.5251 37.4977 65.8115 37.0164C65.3308 36.6913 64.8751 36.3862 64.527 36.0562C62.857 34.4684 63.4579 31.9799 63.5781 31.5557C63.9361 28.8192 67.7896 28.7199 67.9548 28.715C67.9573 28.715 67.9623 28.715 67.9674 28.715C68.3079 28.715 68.5858 28.9854 68.5933 29.3253C68.5983 29.6677 68.3254 29.9505 67.9799 29.9555C67.9373 29.9555 65.0103 30.0423 64.8175 31.7467L64.795 31.8609C64.7899 31.8807 64.1665 33.9896 65.3984 35.1581C65.6688 35.4161 66.0819 35.694 66.5201 35.9892C67.4115 36.5896 68.3329 37.2099 68.7135 38.046C69.377 39.4998 69.352 40.9587 68.6459 42.152C67.8697 43.4645 66.3824 44.3055 64.5721 44.4568C64.5471 44.4618 64.5295 44.4618 64.512 44.4618Z" fill="white"/>
<path d="M58.8057 44.4618C58.4852 44.4618 58.2098 44.2187 58.1823 43.8937C58.1522 43.5513 58.4076 43.2511 58.7531 43.2238C60.1353 43.1072 61.2946 42.4721 61.8554 41.5268C62.3587 40.6783 62.3612 39.6512 61.8629 38.5596C61.6276 38.041 60.8188 37.4977 60.1052 37.0164C59.6245 36.6914 59.1688 36.3862 58.8207 36.0562C57.1507 34.4684 57.7516 31.9825 57.8718 31.5582C58.2298 28.8217 62.0833 28.7224 62.2485 28.7175C62.251 28.7175 62.256 28.7175 62.2611 28.7175C62.6016 28.7175 62.8795 28.9879 62.887 29.3278C62.892 29.6702 62.6191 29.953 62.2736 29.958C62.231 29.958 59.304 30.0448 59.1112 31.7492L59.0887 31.8634C59.0837 31.8832 58.4602 33.9921 59.6921 35.1606C59.9625 35.4186 60.3756 35.6965 60.8138 35.9917C61.7052 36.5921 62.6266 37.2124 63.0072 38.0485C63.6707 39.5023 63.6457 40.9612 62.9396 42.1545C62.1634 43.467 60.6761 44.308 58.8658 44.4593C58.8408 44.4618 58.8232 44.4618 58.8057 44.4618Z" fill="white"/>
</g>
<defs>
<clipPath id="clip0_202_364">
<rect width="128" height="77" fill="white"/>
</clipPath>
</defs>
</svg>
