<svg width="74" height="90" viewBox="0 0 74 90" fill="none" xmlns="http://www.w3.org/2000/svg">
<g clip-path="url(#clip0_202_353)">
<path d="M63.5807 11.824H10.7751C9.57142 11.824 8.59009 10.8307 8.59009 9.61231V2.21173C8.59009 0.993309 9.57142 0 10.7751 0H63.5834C64.7872 0 65.7685 0.993309 65.7685 2.21173V9.61231C65.7685 10.8307 64.7872 11.824 63.5807 11.824ZM10.7751 1.40695C10.3359 1.40695 9.98007 1.76713 9.98007 2.21173V9.61231C9.98007 10.0569 10.3359 10.4171 10.7751 10.4171H63.5834C64.0227 10.4171 64.3785 10.0569 64.3785 9.61231V2.21173C64.3785 1.76713 64.0227 1.40695 63.5834 1.40695H10.7751Z" fill="white"/>
<path d="M40.7988 21.4504H33.204C31.6861 21.4504 30.4518 20.201 30.4518 18.6646V2.78577C30.4518 1.24937 31.6861 0 33.204 0H40.7988C42.3167 0 43.551 1.24937 43.551 2.78577V18.6618C43.551 20.201 42.3167 21.4504 40.7988 21.4504ZM33.204 1.40695C32.4534 1.40695 31.8418 2.02601 31.8418 2.78577V18.6618C31.8418 19.4216 32.4534 20.0406 33.204 20.0406H40.7988C41.5494 20.0406 42.161 19.4216 42.161 18.6618V2.78577C42.161 2.02601 41.5494 1.40695 40.7988 1.40695H33.204Z" fill="white"/>
<path d="M61.2455 90C51.902 90 39.1253 89.8903 36.993 89.8706C33.6793 89.8987 4.47019 90.1492 2.75495 89.8621C0.603253 89.4991 0.0333596 86.7415 0.0111199 86.6233L0 86.4855V37.152C0 35.4327 0.747812 34.0173 0.839551 33.8485L12.3792 11.3485L13.6135 11.9957L2.0544 34.5323C2.04884 34.5435 1.38998 35.7423 1.38998 37.152V86.4038C1.4706 86.7246 1.91818 88.292 2.98569 88.4749C4.19219 88.6775 23.9828 88.5818 36.993 88.4664C50.0144 88.5818 69.8078 88.6803 71.0143 88.4749C72.0818 88.2948 72.5294 86.7274 72.61 86.4038V37.152C72.61 35.7423 71.9512 34.5407 71.9428 34.5295L60.3837 11.9957L61.618 11.3485L73.1577 33.8485C73.2494 34.0173 73.9972 35.4327 73.9972 37.152V86.5558L73.9833 86.6233C73.9611 86.7415 73.3912 89.4991 71.2395 89.8621C70.6279 89.9663 66.4746 90 61.2455 90Z" fill="white"/>
<path d="M23.2711 56.7031H20.0714C19.71 56.7031 19.4181 57.0013 19.4181 57.3643V57.4684C19.4181 57.8343 19.7128 58.1297 20.0714 58.1297H23.2683C23.6297 58.1297 23.9216 57.8314 23.9216 57.4684V57.3643C23.9244 56.9985 23.6297 56.7031 23.2711 56.7031Z" fill="white"/>
<path d="M39.217 56.7031H25.7175C25.3561 56.7031 25.0642 57.0013 25.0642 57.3643V57.4684C25.0642 57.8343 25.3589 58.1297 25.7175 58.1297H39.217C39.5784 58.1297 39.8703 57.8314 39.8703 57.4684V57.3643C39.8703 56.9985 39.5784 56.7031 39.217 56.7031Z" fill="white"/>
<path d="M41.7746 33.7416H41.6717C41.3103 33.7416 41.0184 34.0399 41.0184 34.4028V43.8801C41.0184 44.2459 41.3131 44.5413 41.6717 44.5413H41.7746C42.136 44.5413 42.4279 44.2431 42.4279 43.8801V34.4028C42.4279 34.0399 42.1332 33.7416 41.7746 33.7416Z" fill="white"/>
<path d="M57.2646 51.2384C55.3297 49.2912 52.939 47.7239 50.462 46.6912C50.576 45.7992 50.6371 44.8987 50.6371 44.0151C50.6371 35.9899 45.9056 28.9551 41.8358 28.2573C41.5105 28.201 41.1936 28.1729 40.8933 28.1729C39.9899 28.1729 39.2059 28.4261 38.5665 28.927C37.1932 30.0019 37.0264 31.8169 37.0181 31.921V49.8962C36.5427 49.7049 36.0534 49.5276 35.553 49.37V31.9407L35.5502 31.8956C35.5447 31.8197 35.3779 30.0047 34.0018 28.927C33.3624 28.4261 32.5785 28.1729 31.675 28.1729C31.3747 28.1729 31.0578 28.201 30.7326 28.2573C26.6627 28.9523 21.9312 35.9871 21.9312 44.0151C21.9312 45.8583 22.1786 47.707 22.6651 49.5191C17.8279 51.1794 14.2473 54.4041 13.7664 57.2996C13.544 58.6306 13.7664 59.7421 14.428 60.6088C15.4677 61.9679 17.1691 62.1592 17.3581 62.1761C17.3665 62.1761 17.3776 62.1761 17.3859 62.1761L41.2631 62.1789C41.2714 62.1789 41.2992 62.1761 41.3076 62.1761C41.4688 62.162 42.7226 62.0185 43.7317 61.1434L54.0732 71.5436C54.1927 71.6984 54.8571 72.6185 54.7293 73.6484C54.6459 74.3237 54.2205 74.9456 53.4672 75.4887C52.686 76.0543 51.5101 76.3526 50.0673 76.3526C49.0442 76.3526 47.935 76.2034 46.773 75.908C44.9104 75.4352 43.0395 74.6079 41.3298 73.5133C43.3147 71.9882 44.6213 70.207 44.8993 68.5384C45.1217 67.2074 44.8993 66.0959 44.2377 65.2292C43.1757 63.8391 41.3826 63.6703 41.2798 63.6618H17.4026L17.3581 63.6647C17.2831 63.6703 15.49 63.8391 14.428 65.232C13.7664 66.0987 13.544 67.2102 13.7664 68.5412C14.4531 72.6607 21.403 77.45 29.3342 77.45C33.4236 77.45 37.246 76.1753 40.0899 74.3772C43.2118 76.4961 46.9287 77.7595 50.0673 77.7595C51.8103 77.7595 53.267 77.3712 54.2789 76.6368C55.3631 75.8517 55.9802 74.9034 56.1137 73.8172C56.3277 72.0782 55.1741 70.6741 55.1073 70.5953L44.5963 60.0235C44.8437 59.5198 44.9743 58.9486 44.9799 58.3182L56.1276 69.5317C56.1331 69.5373 56.1526 69.5542 56.1609 69.5598C56.2082 69.602 57.3674 70.57 58.8742 70.57C59.0271 70.57 59.18 70.5587 59.3301 70.539C60.4032 70.3983 61.3345 69.7652 62.1045 68.665C64.4869 65.2517 62.8912 56.8944 57.2646 51.2384ZM57.0728 68.4905L44.3183 55.6619C43.5482 54.2156 42.1165 52.772 40.2401 51.5592L40.2262 51.5452C40.1066 51.3904 39.4422 50.4731 39.5701 49.4404C39.6535 48.7622 40.0788 48.1431 40.8322 47.6001C41.6134 47.0345 42.7893 46.7362 44.2321 46.7362C45.2551 46.7362 46.3643 46.8853 47.5264 47.1808C50.74 47.9968 53.8508 49.7949 56.286 52.243C58.7213 54.6911 60.5144 57.8258 61.3428 61.0759C62.0712 63.9404 61.9322 66.4729 60.9703 67.8546C60.4365 68.6199 59.8277 69.0533 59.1605 69.1433C59.0716 69.1546 58.9771 69.163 58.8853 69.163C57.9735 69.1574 57.209 68.5946 57.0728 68.4905ZM43.526 57.536C43.6789 58.4589 43.5482 59.2018 43.1396 59.7421C42.5141 60.5637 41.4021 60.741 41.2103 60.7663H17.4582C17.2997 60.7438 16.1544 60.5665 15.5289 59.7421C15.1175 59.2018 14.9868 58.4589 15.1425 57.536C15.4205 55.8701 17.0857 53.9736 19.5988 52.4625C22.4483 50.7488 25.9065 49.8034 29.337 49.8034C32.7675 49.8034 36.2258 50.7488 39.0752 52.4625C39.1586 52.5131 39.2365 52.5638 39.3171 52.6116L43.2063 56.523C43.3592 56.8663 43.4704 57.2067 43.526 57.536ZM49.1193 46.1875C47.4624 45.636 45.7972 45.3292 44.2321 45.3292C42.4891 45.3292 41.0323 45.7176 40.0177 46.452C39.2337 47.0176 38.7 47.6732 38.4108 48.402V31.997C38.4331 31.8366 38.6082 30.6772 39.4227 30.0441C39.8119 29.743 40.3068 29.5882 40.8989 29.5882C41.1185 29.5882 41.3576 29.6108 41.6022 29.653C43.248 29.9344 45.1217 31.6199 46.6145 34.1637C48.3075 37.0479 49.2416 40.5484 49.2416 44.0208C49.2444 44.7299 49.1999 45.4587 49.1193 46.1875ZM34.1575 48.9789C32.6257 48.6046 30.9994 48.3908 29.3315 48.3908C27.4772 48.3908 25.6758 48.6553 23.9939 49.1111C23.5519 47.434 23.3239 45.7232 23.3239 44.0151C23.3239 40.5428 24.258 37.0423 25.951 34.158C27.4439 31.6143 29.3176 29.9287 30.9633 29.6473C31.2107 29.6051 31.447 29.5826 31.6666 29.5826C32.2588 29.5826 32.7536 29.7346 33.1428 30.0385C33.9601 30.6744 34.1352 31.8337 34.1547 31.9913V48.9789H34.1575ZM41.2075 65.0744C41.3659 65.0969 42.5113 65.2742 43.1368 66.0987C43.5482 66.639 43.6789 67.3818 43.5232 68.3048C43.2452 69.9706 41.58 71.8672 39.0669 73.3783C36.2174 75.0919 32.7592 76.0374 29.3287 76.0374C25.8982 76.0374 22.4399 75.0919 19.5904 73.3783C17.0801 71.8672 15.4121 69.9706 15.1342 68.3048C14.9813 67.3818 15.1091 66.639 15.5206 66.0987C16.1488 65.2714 17.2942 65.0941 17.4499 65.0744H41.2075Z" fill="white"/>
<path d="M58.9742 63.6675L45.408 50.0228C45.2857 49.899 45.1217 49.8315 44.9465 49.8315C44.7714 49.8315 44.6046 49.9018 44.4823 50.0256L44.41 50.0988C44.2877 50.2226 44.2209 50.3915 44.2209 50.5687C44.2209 50.746 44.2904 50.912 44.4128 51.0358L57.979 64.6833C58.1013 64.8071 58.2653 64.8746 58.4405 64.8746C58.6156 64.8746 58.7824 64.8043 58.9047 64.6805L58.977 64.6073C59.0993 64.4835 59.1661 64.3147 59.1661 64.1374C59.1661 63.9601 59.0966 63.7913 58.9742 63.6675Z" fill="white"/>
</g>
<defs>
<clipPath id="clip0_202_353">
<rect width="74" height="90" fill="white"/>
</clipPath>
</defs>
</svg>
