<svg width="40" height="40" viewBox="0 0 40 40" fill="none" xmlns="http://www.w3.org/2000/svg">
<g clip-path="url(#clip0_284_337)">
<path d="M33.6043 25.9526C33.5397 25.6835 33.3997 25.5758 33.2813 25.4467C31.7739 23.8966 30.1804 22.4327 28.7483 20.818C26.0135 17.7502 24.2799 14.1872 23.4616 10.1722C23.3647 9.68778 23.2248 9.21415 23.1279 8.72976C22.9018 7.69639 23.5801 6.69531 24.6245 6.55538C26.9179 6.24321 29.0821 6.73837 31.0956 7.83633C35.6824 10.3336 38.4711 14.2195 39.6447 19.2572C40.2369 21.776 40.1184 24.2841 39.1063 26.7061C37.7497 29.9246 34.7456 31.8514 31.2463 31.7868C29.5666 31.7545 28.0054 31.3239 26.4872 30.6243C26.0781 30.4305 25.9166 30.0645 26.0781 29.7093C26.2396 29.3541 26.6164 29.2357 27.0471 29.4402C28.4145 30.0645 29.825 30.4736 31.3432 30.4843C34.8102 30.5059 37.5666 28.2884 38.3742 24.8223C39.074 21.8406 38.5572 18.9989 37.2651 16.2755C35.6716 12.8955 33.249 10.2906 29.8143 8.70823C28.2961 8.00855 26.7026 7.6641 25.0121 7.83633C24.5168 7.89015 24.3338 8.09467 24.4199 8.5683C25.1413 12.3788 26.4441 15.9311 28.8883 18.9989C29.6635 19.9784 30.5464 20.8718 31.4186 21.7545C32.4307 22.7771 33.4536 23.789 34.4549 24.8116C35.1548 25.5328 35.0148 26.62 34.1642 27.0505C33.712 27.2766 33.249 27.2766 32.8183 27.0075C27.8654 23.9504 24.0646 19.9031 21.965 14.3918C21.5343 13.2615 21.2113 12.1097 20.9637 10.9364C20.9098 10.6889 20.8129 10.5059 20.5653 10.4413C20.2853 10.3767 20.1131 10.5382 19.9623 10.7534C19.2301 11.8191 18.7995 13.0032 18.6057 14.2734C18.5411 14.7147 18.5195 15.156 18.4549 15.5866C18.4011 15.9741 18.1427 16.2217 17.7981 16.2109C17.432 16.2002 17.1521 15.888 17.1629 15.4682C17.2059 14.381 17.389 13.3153 17.7443 12.282C17.9919 11.5608 18.3042 10.8718 18.7349 10.226C18.8318 10.0861 18.8856 9.95689 18.821 9.78466C17.7227 6.7599 16.0215 4.17648 13.1898 2.50802C10.9071 1.16248 8.50606 0.882612 6.08345 2.14203C4.30687 3.07852 3.14401 4.61781 2.36878 6.44774C1.38897 8.75129 1.14132 11.1732 1.4428 13.649C1.73351 16.0064 2.45491 18.2023 3.7039 20.226C3.94078 20.6135 3.86541 21.001 3.52086 21.2055C3.18708 21.4101 2.83176 21.2917 2.57335 20.8826C1.36743 18.9343 0.61373 16.8245 0.247646 14.5748C-0.204575 11.7868 -0.0323001 9.04192 0.99058 6.39391C1.91656 4.00425 3.35936 2.03439 5.7066 0.882612C8.53836 -0.505978 11.3163 -0.18305 13.9758 1.38853C16.6891 2.99241 18.4334 5.42513 19.6608 8.27766C19.6824 8.34225 19.7254 8.39607 19.7362 8.46065C19.8439 8.95581 20.0808 9.18186 20.6514 9.16033C21.4482 9.12804 22.0619 9.75236 22.2557 10.6458C22.8695 13.5629 24.0108 16.2432 25.712 18.6867C27.4455 21.184 29.5989 23.2615 32.1184 24.9515C32.5814 25.2637 33.0552 25.5866 33.6043 25.9526Z" fill="#D9A14C"/>
<path d="M15.7739 17.3303C18.0673 17.3303 20.1992 17.8578 22.0834 19.2033C22.7618 19.6877 23.0309 20.3336 22.8694 21.1301C22.7079 21.8836 22.2126 22.368 21.4266 22.5187C18.9933 22.9816 16.6891 23.7889 14.5249 25.016C14.1588 25.2205 13.782 25.1021 13.5989 24.7469C13.4266 24.4132 13.5559 24.0688 13.9542 23.8427C15.7847 22.7986 17.7335 22.0235 19.7793 21.5391C20.21 21.4315 20.6406 21.3562 21.0713 21.27C21.3297 21.2162 21.5343 21.1086 21.5882 20.8395C21.6312 20.5811 21.4805 20.4197 21.2867 20.2797C20.0161 19.354 18.5733 18.8911 17.0444 18.7297C11.0686 18.0946 4.68371 22.0989 2.31494 27.2119C1.38896 29.2141 0.969041 31.2808 1.59354 33.4444C2.3257 36.0171 4.12382 37.5456 6.6218 38.2883C9.23822 39.0634 11.8116 38.7512 14.3526 37.8685C15.817 37.3518 17.1628 36.6199 18.4118 35.7157C18.6918 35.5112 18.9717 35.4143 19.2947 35.6296C19.7147 35.9094 19.7039 36.3831 19.2409 36.7168C17.755 37.8039 16.14 38.6543 14.3849 39.2248C11.8008 40.0537 9.17362 40.312 6.51413 39.5908C3.52086 38.762 1.34589 36.9966 0.398381 33.9503C-0.312251 31.6791 -0.0107707 29.4401 0.882904 27.2873C2.39031 23.6489 5.04979 21.0763 8.47375 19.2356C10.8318 17.9546 13.3728 17.3303 15.7739 17.3303Z" fill="#D9A14C"/>
<path d="M5.85733 33.4984C6.08344 33.4769 6.15881 33.3369 6.26648 33.2401C7.83848 31.7869 9.33512 30.2368 10.9717 28.8375C14.0619 26.2002 17.6043 24.521 21.6097 23.789C22.1373 23.6922 22.6541 23.563 23.1817 23.4554C24.2692 23.2185 25.2705 23.8859 25.4105 24.9839C25.6689 26.943 25.2059 28.7837 24.4199 30.5598C23.7954 31.9699 22.9233 33.2185 21.8896 34.3596C21.5558 34.7363 21.179 34.7686 20.8775 34.4887C20.576 34.2089 20.5868 33.8644 20.9206 33.4984C22.3418 31.9053 23.4078 30.1184 23.9139 28.0302C24.14 27.1152 24.2476 26.1895 24.1292 25.2422C24.0861 24.8762 23.8492 24.6717 23.5047 24.7363C20.1453 25.3499 16.8937 26.2756 14.0188 28.2132C12.9421 28.9451 11.9085 29.7309 10.961 30.6244C9.61506 31.8945 8.27994 33.1755 6.92327 34.4457C6.08344 35.2315 4.84521 34.8224 4.5868 33.7137C4.50066 33.3477 4.5868 33.014 4.79138 32.7234C6.55719 30.0754 8.57065 27.6427 11.1332 25.7158C11.4132 25.5006 11.7039 25.4037 12.0161 25.6082C12.2746 25.7697 12.3284 26.028 12.2746 26.3186C12.2315 26.5339 12.07 26.6631 11.9085 26.7815C9.49663 28.5791 7.62314 30.8612 5.95423 33.3262C5.91116 33.3477 5.90039 33.4015 5.85733 33.4984Z" fill="#D9A14C"/>
<path d="M8.16151 5.43578C9.01211 7.30876 9.86272 9.16021 10.681 11.0224C11.3486 12.551 11.8331 14.1548 12.1131 15.8018C12.1777 16.2 11.9839 16.5337 11.6393 16.6091C11.2625 16.6952 10.9071 16.4799 10.8425 16.0709C10.4118 13.4552 9.30283 11.087 8.19381 8.71888C7.78466 7.84697 7.39704 6.97507 6.99866 6.0924C6.65411 5.3389 6.88022 4.5854 7.54778 4.20865C8.20458 3.84267 8.91521 4.02566 9.4105 4.69304C11.3271 7.24417 12.9421 9.95677 13.9004 13.0138C14.1373 13.7781 14.3742 14.5423 14.5141 15.3281C14.611 15.8771 14.2342 16.2539 13.7281 16.1355C13.4159 16.0601 13.2867 15.8233 13.2221 15.5327C12.5653 12.594 11.3809 9.88142 9.69045 7.38411C9.27053 6.75978 8.81831 6.15698 8.37685 5.55418C8.34455 5.50036 8.32302 5.39272 8.16151 5.43578Z" fill="#D9A14C"/>
</g>
<defs>
<clipPath id="clip0_284_337">
<rect width="40" height="40" fill="white"/>
</clipPath>
</defs>
</svg>
