<svg width="40" height="40" viewBox="0 0 40 40" fill="none" xmlns="http://www.w3.org/2000/svg">
<g clip-path="url(#clip0_284_344)">
<path d="M16.3249 0C16.9709 0.362124 17.0785 0.753609 16.6773 1.37999C16.139 2.23147 16.1879 3.09273 16.8241 3.89528C17.2841 4.47272 17.7147 5.06973 17.9104 5.80377C18.253 7.06631 18.067 8.24076 17.3428 9.31735C17.1568 9.60117 16.9513 9.86543 16.736 10.1199C16.4619 10.4331 15.9922 10.4918 15.679 10.2667C15.3364 10.022 15.2483 9.5816 15.4734 9.1999C15.5517 9.06288 15.6594 8.94544 15.7475 8.82799C16.7653 7.54588 16.7653 6.33227 15.7181 5.05995C15.1505 4.35527 14.7394 3.59188 14.7296 2.6621C14.7296 1.62466 15.0134 0.694886 15.8551 0C16.0117 0 16.1683 0 16.3249 0Z" fill="#D9A14C"/>
<path d="M0 21.6394C0.146807 21.8058 0.0587228 22.0113 0.0685099 22.1973C0.0391485 22.2168 0.0195743 22.2168 0 22.1875C0 22.0015 0 21.8156 0 21.6394Z" fill="#D9A14C"/>
<path d="M0 22.1875C0.0195743 22.1875 0.0489356 22.1875 0.0685099 22.1973C0.0685099 22.3343 0.0685099 22.4615 0.0587228 22.5986L0.0195743 22.6083L0 22.579C0 22.442 0 22.3147 0 22.1875Z" fill="#D9A14C"/>
<path d="M0 35.1553C0.117446 35.2825 0.0880842 35.4195 0.0685099 35.5663C0.0489356 35.5565 0.0293614 35.5468 0 35.5468C0 35.4097 0 35.2825 0 35.1553Z" fill="#D9A14C"/>
<path d="M19.6721 11.265C19.6526 11.0595 19.8777 10.8442 20.0636 10.6093C20.4551 10.1297 20.7487 9.61099 20.8074 8.97482C20.8564 8.36802 20.7389 7.81015 20.4159 7.31101C20.1713 6.9391 19.8874 6.60634 19.6428 6.23443C18.8109 4.99146 18.8696 3.29829 19.7896 2.12383C20.093 1.73235 20.553 1.64426 20.9151 1.89873C21.2674 2.14341 21.3653 2.59362 21.0815 2.99489C20.3964 3.9736 20.5628 4.97189 21.2968 5.84294C22.2755 6.99782 22.6572 8.32887 22.2559 9.8263C22.0406 10.6484 21.561 11.3335 20.9934 11.9403C20.7781 12.1654 20.4845 12.2437 20.1713 12.1165C19.8581 11.9795 19.6917 11.7446 19.6721 11.265Z" fill="#D9A14C"/>
<path d="M12.5765 2.61325C12.596 2.77964 12.4688 2.93623 12.3709 3.10261C11.8033 4.03239 11.8522 4.85451 12.5471 5.71577C12.8211 6.05832 13.0952 6.41066 13.2909 6.80215C14.1228 8.53447 13.8292 10.12 12.6548 11.5881C12.4688 11.8132 12.3122 12.0676 11.9794 12.1459C11.6565 12.2144 11.4216 12.1263 11.216 11.8915C11.0105 11.6566 10.9518 11.3923 11.079 11.0987C11.1671 10.8932 11.3139 10.7268 11.4509 10.5506C12.4296 9.30765 12.4296 8.08426 11.4216 6.84129C10.942 6.24428 10.5603 5.6179 10.4429 4.84472C10.2863 3.82686 10.5407 2.91666 11.1475 2.09454C11.3824 1.78135 11.7054 1.6639 12.0773 1.80092C12.4101 1.93794 12.5765 2.2022 12.5765 2.61325Z" fill="#D9A14C"/>
<path d="M29.058 21.7666C28.872 24.9572 27.678 27.7466 25.4661 30.0857C25.1138 30.4576 24.6244 30.487 24.2917 30.1836C23.9687 29.8802 23.9589 29.4006 24.3308 28.9993C25.1334 28.1381 25.8185 27.1985 26.3372 26.1415C27.1006 24.6049 27.4431 22.9705 27.5116 21.2675C27.5312 20.7684 27.8738 20.4454 28.324 20.465C28.7644 20.4845 29.058 20.8173 29.0678 21.2969C29.058 21.4437 29.058 21.5905 29.058 21.7666Z" fill="#D9A14C"/>
<path d="M23.0487 31.5733C23.0487 32.0137 22.7062 32.3562 22.2657 32.3562C21.8155 32.3562 21.4926 32.0235 21.4926 31.5733C21.4926 31.1524 21.8547 30.7903 22.2853 30.7805C22.6964 30.7805 23.0487 31.1329 23.0487 31.5733Z" fill="#D9A14C"/>
<path d="M11.9599 14.4751C11.9599 14.9155 11.6173 15.2581 11.1769 15.2581C10.7463 15.2581 10.3841 14.8862 10.3939 14.4653C10.4037 14.0641 10.7658 13.7019 11.1671 13.6921C11.588 13.6726 11.9599 14.0445 11.9599 14.4751Z" fill="#D9A14C"/>
<path d="M30.0073 30.389C30.1835 30.115 30.3793 30.0171 30.7022 30.0269C31.7886 30.0465 32.8945 30.1052 33.9711 29.8801C37.5924 29.1167 40.0489 25.9359 40 22.3832C39.9706 20.6998 40 19.0262 40 17.3428C40 16.3249 39.7847 16.1096 38.7766 16.1096C36.8877 16.1096 34.9988 16.1096 33.1099 16.1194C32.8848 16.1194 32.7869 16.0803 32.8065 15.8258C32.826 15.4637 32.8162 15.1015 32.8162 14.7296C32.8162 13.9565 32.5422 13.6824 31.7592 13.6824C26.3176 13.6824 20.8759 13.6824 15.4343 13.6824C15.2679 13.6824 15.1015 13.6922 14.9352 13.7411C14.573 13.8586 14.3577 14.162 14.3871 14.5437C14.4164 14.896 14.6513 15.1798 15.0135 15.2386C15.1896 15.2679 15.3756 15.2777 15.5517 15.2777C20.6704 15.2777 25.7793 15.2777 30.898 15.2679C31.1916 15.2679 31.2601 15.3364 31.2601 15.6301C31.2405 17.47 31.2601 19.3002 31.2503 21.1402C31.2503 22.0798 31.1818 23.0193 30.9958 23.9295C30.1248 28.2359 27.8542 31.5831 24.1155 33.9222C23.9491 34.0299 23.7925 34.069 23.6066 34.069C18.8206 34.069 14.025 34.069 9.23905 34.069C9.03352 34.069 8.86714 34.0201 8.69097 33.9124C7.15439 32.9728 5.82334 31.7984 4.72718 30.3695C2.92635 28.0303 1.85955 25.3878 1.64424 22.4419C1.47786 20.1419 1.60509 17.8322 1.56594 15.5322C1.55615 15.2777 1.68339 15.2777 1.86934 15.2777C3.39613 15.2777 4.91314 15.2777 6.43993 15.2777C6.60631 15.2777 6.78248 15.2679 6.93908 15.2386C7.32077 15.1701 7.56545 14.8862 7.58503 14.5143C7.6046 14.1424 7.38928 13.8586 7.00758 13.7314C6.8412 13.6726 6.67482 13.6726 6.50844 13.6726C4.70761 13.6726 2.91656 13.6824 1.11573 13.6628C0.636163 13.6628 0.254465 13.7901 0.00978713 14.2109C0.00978713 16.6871 0.00978713 19.1534 0.00978713 21.6296C0.0978713 21.8057 0.0293614 22.0015 0.0489356 22.1874C0.0489356 22.3147 0.0489356 22.4419 0.0489356 22.5691C0.0391485 23.0096 0.0489357 23.45 0.117446 23.8904C0.645951 27.2082 2.07487 30.0856 4.38463 32.5324C4.83484 33.012 5.30462 33.4818 5.8527 33.932C5.66675 33.9613 5.53952 33.9516 5.41228 33.9516C3.92464 33.9516 2.44678 33.9516 0.959139 33.9516C0.371911 33.9516 0.166381 34.0984 0 34.5975C0 34.7835 0 34.9596 0 35.1456C0.0880842 35.2728 0 35.4294 0.0685099 35.5566C0.0880842 35.6937 0.0978713 35.8405 0.127233 35.9775C0.743822 38.4341 2.73061 39.9804 5.2459 39.9902C13.3007 39.9902 21.3653 39.9902 29.4201 39.9902C29.7431 39.9902 30.0661 39.9706 30.389 39.9217C32.7379 39.5694 34.6562 37.3868 34.6758 35.0281C34.6856 34.3333 34.4018 34.0494 33.7167 34.0494C31.5146 34.0494 29.3125 34.0494 27.1201 34.0494C26.9929 34.0494 26.8755 34.0494 26.6699 34.0494C26.7678 33.9613 26.8069 33.9124 26.8559 33.8733C28.0695 32.875 29.1461 31.7201 30.0073 30.389ZM32.5226 24.37C32.7184 23.3032 32.8358 22.2364 32.8065 21.1598C32.7967 20.9053 32.8652 20.8172 33.1294 20.8368C33.4426 20.8564 33.7558 20.8466 34.1375 20.8466C34.4801 20.8857 35.0281 20.6704 35.2532 20.9249C35.4588 21.15 35.3022 21.6883 35.312 22.0896C35.3413 23.3815 34.9009 24.4189 33.6873 25.0355C33.609 25.0746 33.5209 25.1236 33.4426 25.1431C33.1001 25.2508 32.6694 25.4661 32.4052 25.2606C32.1899 25.104 32.4639 24.6734 32.5226 24.37ZM31.6712 27.2474C31.7592 26.9831 31.8963 26.895 32.1703 26.9048C33.5601 26.944 34.7737 26.5036 35.723 25.4563C36.4668 24.6342 36.8583 23.6653 36.8583 22.5593C36.8583 21.7764 36.8583 20.9934 36.8583 20.2202C36.8583 19.5547 36.5647 19.2513 35.8894 19.2415C34.9694 19.2317 34.0396 19.2317 33.1196 19.2415C32.875 19.2415 32.7771 19.1926 32.7967 18.9283C32.826 18.5368 32.6694 18.0377 32.8652 17.793C33.0609 17.5483 33.5894 17.7245 33.9809 17.7147C35.3609 17.7049 36.7409 17.7147 38.1209 17.7147C38.2775 17.7147 38.4536 17.656 38.4438 17.9496C38.3949 19.7309 38.5319 21.5121 38.3655 23.2934C38.1307 25.7695 35.8894 28.0499 33.4328 28.3729C32.689 28.4708 31.955 28.412 31.172 28.4512C31.358 28.0108 31.5439 27.6389 31.6712 27.2474ZM32.5716 35.6252C33.0316 35.6252 33.0316 35.6252 32.8848 36.0754C32.415 37.4847 30.9958 38.4341 29.332 38.4341C25.5053 38.4341 21.6785 38.4341 17.8517 38.4341C13.6922 38.4341 9.52288 38.4439 5.36335 38.4341C3.80719 38.4341 2.62295 37.7685 1.90849 36.3494C1.80083 36.1243 1.72253 35.8992 1.68339 35.6252C1.83998 35.6252 1.977 35.6252 2.12381 35.6252C12.2731 35.6252 22.4223 35.6252 32.5716 35.6252Z" fill="#D9A14C"/>
</g>
<defs>
<clipPath id="clip0_284_344">
<rect width="40" height="40" fill="white"/>
</clipPath>
</defs>
</svg>
