<svg width="40" height="43" viewBox="0 0 40 43" fill="none" xmlns="http://www.w3.org/2000/svg">
<g clip-path="url(#clip0_284_328)">
<path d="M7.34078 28.4346C7.84357 28.4121 8.14525 28.6478 8.15642 29.0517C8.16759 29.4445 7.91061 29.7026 7.41899 29.7138C7.02793 29.725 6.77095 29.9382 6.56983 30.23C6.46927 30.3759 6.39106 30.5442 6.30167 30.7013C6.11173 31.0155 5.85475 31.1501 5.4972 31.0043C5.13966 30.8584 5.05028 30.5666 5.13966 30.2188C5.36313 29.3098 6.40223 28.4795 7.34078 28.4346Z" fill="#D9A14C"/>
<path d="M27.6425 7.31621C27.9106 7.11423 28.1006 7.09179 28.4022 7.23766C31.229 8.60666 33.9106 8.39346 36.3799 6.38485C37.8771 5.17295 38.9609 3.62441 39.8212 1.90755C40.2793 0.987403 39.7765 0.145806 38.7486 0.0896999C36.3575 -0.0449556 33.9553 -0.0561769 31.5754 0.17947C30.3799 0.302905 29.352 0.774199 28.5922 1.72801C27.8212 2.69304 27.486 3.82639 27.3631 5.04951C27.3296 5.36371 27.4078 5.79012 27.2402 5.98088C26.905 6.3624 26.4358 6.62049 25.9777 6.95713C26.067 6.13798 26.0782 5.41981 25.8547 4.72409C25.7318 4.35379 25.419 4.19669 25.0726 4.29768C24.7709 4.37623 24.581 4.71287 24.6369 5.06073C24.6816 5.35249 24.7598 5.63302 24.7709 5.92477C24.8045 7.30499 24.2235 8.40468 23.2402 9.3136C21.6425 10.7948 20.1229 12.3546 18.7263 14.0265C18.0112 14.8906 17.3184 15.7771 16.6033 16.6748C16.5363 16.2371 16.5363 15.8107 16.4134 15.418C16.2123 14.7784 16.257 14.2398 16.8156 13.8021C16.8492 13.7797 16.8603 13.7348 16.8827 13.7011C17.7877 12.2872 17.9888 10.7499 17.7542 9.12284C17.4972 7.38354 16.2346 6.00332 14.6369 5.72279C12.8492 5.40859 11.2961 6.1492 10.4246 7.79873C10.2905 8.05682 10.1676 8.0456 9.9553 7.97827C8.59218 7.58552 7.21787 7.5743 5.8324 7.8885C5.53072 7.95583 5.32961 8.12415 5.28491 8.43834C5.25139 8.7301 5.36313 8.95452 5.63128 9.08918C5.8324 9.19017 6.03352 9.1565 6.24581 9.11162C7.24022 8.89841 8.24581 8.86475 9.22905 9.11162C12.2905 9.88589 14.1117 11.9394 15.0056 14.9018C15.1508 15.3843 15.2626 15.8781 15.2402 16.4728C14.7374 15.6649 14.2346 14.9579 13.6425 14.3295C11.3296 11.8721 8.50279 10.6377 5.10614 10.8285C4.61452 10.8509 4.35754 11.0866 4.36871 11.4905C4.37989 11.9057 4.64804 12.1077 5.13966 12.0965C5.53072 12.0853 5.92178 12.0628 6.31285 12.0965C7.09497 12.1526 7.86592 12.2648 8.70391 12.5902C8.16759 12.6239 7.75419 12.6575 7.34078 12.68C6.88268 12.7024 6.6257 12.9269 6.6257 13.3196C6.6257 13.7123 6.89385 13.9368 7.35195 13.948C8.35754 13.9592 9.35195 13.8246 10.3128 13.5328C10.4693 13.4879 10.6033 13.4318 10.7821 13.544C11.419 13.9704 12.0112 14.453 12.5475 15.014C12.7151 15.1936 12.7263 15.2497 12.4581 15.317C11.5978 15.5078 10.7486 15.4741 9.89944 15.2384C9.43016 15.1038 9.09497 15.2721 8.99441 15.6536C8.88268 16.0576 9.09497 16.3381 9.58659 16.484C10.838 16.8431 12.0782 16.8094 13.3184 16.3942C13.4749 16.3381 13.5978 16.2708 13.7318 16.484C14.1676 17.1573 14.5475 17.8418 14.8939 18.5599C14.9721 18.7283 14.9385 18.8068 14.7821 18.8854C13.9441 19.323 13.095 19.727 12.1899 19.9963C10.8715 20.3778 9.75419 20.1309 8.90502 18.9639C8.2905 18.1111 7.81005 17.1797 7.32961 16.2596C7.02793 15.6761 6.70391 15.1038 6.26815 14.6101C5.0391 13.2186 3.5419 13.0054 1.97765 14.0153C1.76536 14.15 1.55307 14.3071 1.31843 14.4754C1.19553 13.4318 1.47486 12.5566 2.04469 11.7486C2.48044 11.1315 3.02793 10.6489 3.64246 10.2225C4.03352 9.95322 4.1229 9.57169 3.89944 9.2575C3.68715 8.95452 3.31843 8.92086 2.93854 9.16773C2.37989 9.52681 1.88827 9.942 1.45251 10.447C0.324019 11.6813 -0.23464 13.1288 0.0893826 14.8233C0.446925 16.7084 1.62011 18.0325 3.16201 19.0761C3.31843 19.1771 3.47486 19.2332 3.6648 19.2444C4.34637 19.2781 4.78212 18.8293 4.86033 18.0213C4.93854 17.2134 5.11732 16.4167 5.40782 15.62C5.72067 15.9678 5.91061 16.3606 6.11173 16.7421C6.65922 17.7745 7.17318 18.8293 7.88826 19.7606C8.99441 21.197 10.4246 21.7131 12.2011 21.2755C12.7709 21.1408 13.3073 20.9052 13.9441 20.7144C12.6927 22.8016 11.6313 24.8888 10.6704 27.0657C9.87709 26.3363 8.98324 25.9099 7.9553 25.8313C6.78212 25.7304 5.76536 26.1231 4.89385 26.8861C4.6257 27.1218 4.61452 27.5033 4.82681 27.7502C5.0391 28.0083 5.39665 28.0532 5.68715 27.8624C5.78771 27.7951 5.88827 27.7053 5.98882 27.638C7.34078 26.6842 9.29609 27.0769 10.1564 28.4796C10.2346 28.603 10.3464 28.704 10.2123 28.8835C9.50838 29.8486 9.26257 30.9483 9.29609 32.1153C9.29609 32.2836 9.25139 32.3958 9.09497 32.4856C8.18994 33.013 7.59776 33.7985 7.25139 34.7747C7.17318 34.9991 7.05028 35.0665 6.82681 35.0777C5.22905 35.1114 3.88827 33.8209 3.84357 32.2163C3.82123 31.3971 4.02234 30.6453 4.31285 29.8935C4.4581 29.5232 4.31285 29.209 3.97765 29.0631C3.65363 28.9172 3.32961 29.0182 3.17318 29.3548C2.60335 30.6341 2.34637 31.9582 2.7486 33.3384C3.25139 35.0328 4.70391 36.1998 6.52514 36.3345C6.88268 36.3569 6.89385 36.4916 6.87151 36.7609C6.82681 37.2658 6.84916 37.7708 6.90502 38.2645C6.93854 38.5338 7.00558 38.7919 6.94972 39.05C6.73743 40.0375 6.6257 41.0362 6.48044 42.0237C6.4134 42.4389 6.50279 42.7643 6.88268 42.9887C7.05028 42.9887 7.21787 42.9887 7.38547 42.9887C7.69832 42.7306 7.76536 42.3715 7.79888 41.99C7.8324 41.6646 7.87709 41.3392 7.93296 40.9015C8.07821 41.0811 8.14525 41.1821 8.22346 41.2718C9.93296 43.0448 12.7374 43.0224 14.3799 41.1933C15.229 40.2507 15.5642 39.0949 15.6536 37.8606C15.6648 37.6923 15.6201 37.5239 15.8436 37.4005C17.419 36.6038 18.0782 35.2236 18.2235 33.5404C18.2346 33.3496 18.2905 33.2486 18.4804 33.1813C19.2514 32.8783 19.9441 32.4407 20.5698 31.9133C20.7374 31.7674 20.8492 31.7337 21.0614 31.8684C22.1006 32.5305 23.229 32.6202 24.3799 32.205C25.7207 31.7225 26.7263 30.7912 27.5307 29.6241C27.6313 29.4783 27.6871 29.3548 27.9106 29.3997C28.5587 29.5344 29.2179 29.4446 29.8547 29.3324C32.2235 28.906 34.5028 28.9509 36.5698 30.4096C36.9497 30.6789 37.3966 30.6453 37.7877 30.3984C38.1899 30.1515 38.3687 29.7588 38.3352 29.2987C38.2458 27.9409 38.0335 26.6168 37.6201 25.3152C36.514 21.8702 34.3687 19.3567 31.0168 17.954C30.5587 17.7632 30.2123 17.8642 30.0559 18.2233C29.8994 18.5824 30.067 18.9415 30.5028 19.121C33.6536 20.4339 35.5754 22.824 36.514 26.0558C36.8045 27.0545 36.9609 28.0868 37.0503 29.1753C36.9497 29.1192 36.905 29.0967 36.8603 29.0631C35.1397 27.9971 33.2626 27.6604 31.2626 27.8287C30.3687 27.9073 29.5084 28.1317 28.6145 28.1654C28.3017 28.1766 28.1788 28.1205 28.257 27.7502C28.6369 26.0446 27.5531 24.2155 25.8994 23.531C24.7263 23.0485 23.5866 23.2168 22.4804 23.7778C22.3464 23.8452 22.2235 23.9911 22.0447 23.8227C21.3631 23.1719 20.6033 22.6221 19.7095 22.1732C20.2123 22.0273 20.648 21.8815 21.0838 21.758C23.2961 21.1633 25.5195 20.8603 27.7989 21.2867C28.1117 21.3428 28.2011 21.4775 28.2682 21.758C28.5922 23.1382 29.0726 24.4511 29.8883 25.6181C29.9777 25.7416 30.067 25.8762 30.1788 25.9772C30.4358 26.2241 30.7263 26.2578 31.0056 26.0333C31.2737 25.8201 31.352 25.5284 31.1732 25.2142C31.1061 25.0907 31.0168 24.9897 30.9385 24.8775C30.3128 23.9798 29.9106 22.9811 29.6201 21.8702C30.5698 22.2854 31.3296 22.8465 31.9888 23.5534C32.7374 24.3501 33.2849 25.2927 33.6983 26.3026C33.8771 26.729 34.2123 26.8749 34.5587 26.7291C34.8827 26.5832 35.0391 26.2465 34.8938 25.8987C33.9553 23.5198 32.4246 21.6682 30.0223 20.6583C27.7989 19.7157 25.486 19.6709 23.1397 20.0299C23.0056 20.0524 22.8603 20.0636 22.7263 20.086C22.6033 20.1085 22.4916 20.187 22.3687 20.1197C23.3966 19.4015 24.5028 18.919 25.7095 18.6834C26.4246 18.5375 27.1508 18.5375 27.8659 18.5487C28.2458 18.5487 28.5251 18.2906 28.5475 17.954C28.5698 17.6174 28.324 17.3368 27.9441 17.2807C27.7877 17.2583 27.6425 17.2471 27.486 17.2471C25.2626 17.2471 23.2402 17.8642 21.4637 19.2108C20.6704 19.8055 19.8994 20.4227 19.0614 20.9501C18.5475 21.2755 18.0335 21.6009 17.419 21.7244C16.324 21.9488 15.2737 22.2966 14.2905 22.8128C14.2346 22.8465 14.1899 22.8353 14.1564 22.8128C14.2346 22.6894 14.3128 22.5772 14.3799 22.4537C15.3408 20.7705 16.3911 19.1435 17.5307 17.5725C18.0112 16.9104 18.4916 16.2371 19.1397 15.7097C21.1732 14.0378 23.5866 13.3757 26.1341 13.0952C26.3575 13.0727 26.4022 13.1625 26.4246 13.3757C26.5475 14.6998 27.1508 15.7658 28.2793 16.4391C30.2682 17.6398 32.3799 17.6735 34.4804 16.7982C36.2011 16.08 37.095 14.5539 37.0279 12.7137C36.9944 11.008 35.8994 9.53803 34.1899 8.90964C32.7933 8.39346 31.3631 8.34857 29.9218 8.70765C28.324 9.1004 27.1285 9.98688 26.6033 11.6252C26.5251 11.8721 26.3352 11.8384 26.1676 11.8496C25.5531 11.8721 24.9497 11.973 24.3464 12.0853C23.3743 12.2536 22.4358 12.5229 21.4302 12.9044C21.5754 12.7473 21.6425 12.6688 21.7207 12.5902C23.5531 10.6602 25.5307 8.92086 27.6425 7.31621ZM31.7877 1.44748C34.0559 1.25671 36.324 1.20061 38.5922 1.39137C38.5922 1.40259 38.6257 1.43626 38.6145 1.44748C37.6871 3.27655 36.514 4.90364 34.7263 5.9921C32.9162 7.10301 31.0503 7.03568 29.1285 6.17164C29.5978 5.81256 29.9777 5.41981 30.6816 5.59936C31.5307 5.82378 32.4134 5.80134 33.2961 5.71157C33.7207 5.66668 33.9665 5.44226 33.9553 5.06073C33.9441 4.69043 33.6871 4.45478 33.2626 4.44356C32.8715 4.44356 32.4916 4.44356 32 4.44356C32.7598 4.02837 33.486 3.78151 34.2011 3.52342C34.3687 3.45609 34.5475 3.4112 34.7151 3.3551C35.2179 3.18678 35.419 2.90624 35.2961 2.5135C35.1732 2.09831 34.8492 1.97488 34.3128 2.1432C33.3296 2.44617 32.3799 2.8277 31.4525 3.26533C30.5028 3.71418 29.5866 4.2528 28.7039 4.84753C28.6257 3.16433 30.0335 1.59335 31.7877 1.44748ZM4.2905 15.0028C3.92179 15.8893 3.73184 16.8206 3.59776 17.8193C2.86033 17.3032 2.30167 16.6635 1.85475 15.9229C1.81005 15.8556 1.81005 15.8107 1.84357 15.7434C2.14525 15.1823 3.45251 14.5764 4.08938 14.6774C4.31285 14.711 4.39106 14.7672 4.2905 15.0028ZM14.324 38.3431C14.0894 39.5325 13.6425 40.5649 12.4581 41.0699C10.8939 41.7431 9.2067 41.0699 8.54748 39.4877C7.93296 38.0064 7.9553 36.5028 8.53631 35.0104C8.72625 34.5166 9.02793 34.079 9.4972 33.7648C9.51955 33.8321 9.53072 33.877 9.5419 33.9107C9.8324 34.5727 9.91061 35.1562 9.32961 35.7622C9.00558 36.0988 8.98324 36.6599 8.97206 37.1536C8.96089 37.5688 9.2067 37.8494 9.56424 37.883C9.93296 37.9055 10.1899 37.6923 10.2458 37.2546C10.3017 36.8955 10.2682 36.5252 10.5363 36.2223C10.6592 36.2335 10.7039 36.3569 10.7709 36.4355C11.6089 37.3781 12.6592 37.8942 13.9218 37.8718C14.3575 37.8494 14.3911 37.9952 14.324 38.3431ZM16.7374 34.6064C16.3575 35.6612 15.6201 36.3233 14.5251 36.5365C13.3408 36.7609 12.3128 36.413 11.6201 35.4256C10.581 33.9443 10.3128 32.2724 10.8045 30.5331C11.162 29.3099 12.067 28.6591 13.3073 28.5132C14.4246 28.3786 15.3184 28.8274 15.9777 29.7364C16.7151 30.7463 16.9162 31.9245 16.9721 33.1476C16.9497 33.6189 16.9162 34.1239 16.7374 34.6064ZM23.6313 24.7317C24.581 24.3726 25.4972 24.5633 26.257 25.2927C27.0279 26.0333 27.2849 26.9423 26.9385 27.9297C26.3799 29.5119 25.2849 30.6004 23.6536 31.1054C23.4525 31.1727 23.2402 31.1615 23.0391 31.1727C21.3184 31.1727 20.067 29.4446 20.6369 27.7839C21.1397 26.3026 22.1788 25.2703 23.6313 24.7317ZM17.5084 23.0148C17.9665 22.9138 18.3911 23.0709 18.8045 23.2168C19.6313 23.5085 20.324 24.0247 20.9832 24.5858C21.162 24.7317 21.1508 24.799 20.9944 24.9561C20.3352 25.6069 19.7877 26.3363 19.4749 27.2228C19.0614 28.3898 19.1285 29.5232 19.7877 30.5892C19.8883 30.7575 19.9106 30.8473 19.7318 30.9819C19.2626 31.3522 18.7709 31.6776 18.1788 31.9357C18.0335 31.3859 17.9441 30.836 17.743 30.3199C17.1061 28.7152 16.067 27.5819 14.3017 27.2565C13.6648 27.133 12.838 27.2228 11.8659 27.5594C12.3352 26.5607 12.648 25.5508 13.5419 24.8551C14.7263 23.9349 16.0559 23.3402 17.5084 23.0148ZM15.6871 13.084C15.1285 11.8608 14.3575 10.7948 13.352 9.90833C13.1061 9.69513 13.2067 9.57169 13.3966 9.44826C13.5084 9.36971 13.6536 9.34727 13.7654 9.26872C14.067 9.07796 14.1452 8.7862 14.0112 8.47201C13.8883 8.16903 13.6313 8.03438 13.2961 8.11293C12.8939 8.2027 12.5475 8.4159 12.2905 8.74132C11.9888 9.12284 11.8101 8.69643 11.5978 8.6291C11.3184 8.53933 11.5531 8.34857 11.6201 8.23636C12.2123 7.24889 13.0838 6.8337 14.2235 6.97957C15.2626 7.11423 15.9665 7.70896 16.2905 8.68521C16.7598 10.0879 16.6145 11.4569 15.9441 12.7698C15.8883 12.8932 15.8436 13.0279 15.6871 13.084ZM29.5754 10.1664C30.9721 9.61658 32.4022 9.61658 33.8101 10.1328C35.1173 10.6153 35.8547 11.7486 35.7765 13.0279C35.6871 14.4754 34.8492 15.4741 33.3855 15.8781C32.8492 16.0239 32.2905 16.08 31.7095 16.0688C30.9721 16.0913 30.2346 15.9791 29.5307 15.6761C28.3128 15.1487 27.676 14.1724 27.6871 12.8595C27.6983 11.6252 28.3575 10.6489 29.5754 10.1664Z" fill="#D9A14C"/>
<path d="M11.4749 32.3173C11.486 31.4645 11.743 30.7575 12.4357 30.2638C12.8268 29.972 13.229 30.0057 13.4637 30.3311C13.6871 30.6453 13.5866 30.9932 13.1955 31.2961C12.7486 31.644 12.7039 32.1041 12.7821 32.609C12.838 32.9457 12.7374 33.2262 12.4246 33.3721C12.1676 33.4955 11.9106 33.4506 11.6983 33.2486C11.5754 33.1252 11.5307 32.9569 11.5084 32.7998C11.4749 32.6315 11.486 32.4631 11.4749 32.3173Z" fill="#D9A14C"/>
<path d="M31.9441 10.649C32.9497 10.7387 33.743 11.0866 34.1899 11.9955C34.4022 12.4219 34.2905 12.7922 33.9441 12.9718C33.5978 13.1513 33.2737 13.0166 33.0391 12.5678C32.7709 12.0404 32.2905 11.9506 31.7765 11.9282C31.3631 11.9057 31.1173 11.6925 31.095 11.3447C31.0726 11.008 31.2067 10.7724 31.5419 10.6826C31.6983 10.6377 31.8547 10.649 31.9441 10.649Z" fill="#D9A14C"/>
<path d="M24.1005 25.5284C24.4246 25.506 24.7374 25.5845 25.0167 25.7528C25.3184 25.9436 25.3966 26.2466 25.2514 26.5608C25.1173 26.8525 24.8491 27.0208 24.5363 26.8974C24.0112 26.6842 23.6313 26.8974 23.2514 27.2228C23.1508 27.3126 23.0391 27.4136 22.905 27.4473C22.6257 27.5258 22.3799 27.436 22.2123 27.1892C22.0335 26.9311 22.0335 26.6618 22.257 26.4261C22.7598 25.8875 23.3519 25.5284 24.1005 25.5284Z" fill="#D9A14C"/>
<path d="M27.6425 7.31621C27.9106 7.11423 28.1006 7.09179 28.4022 7.23766C31.229 8.60666 33.9106 8.39346 36.3799 6.38485C37.8771 5.17295 38.9609 3.62441 39.8212 1.90755C40.2793 0.987403 39.7765 0.145806 38.7486 0.0896999C36.3575 -0.0449556 33.9553 -0.0561769 31.5754 0.17947C30.3799 0.302905 29.352 0.774199 28.5922 1.72801C27.8212 2.69304 27.486 3.82639 27.3631 5.04951C27.3296 5.36371 27.4078 5.79012 27.2402 5.98088C26.905 6.3624 26.4358 6.62049 25.9777 6.95713C26.067 6.13798 26.0782 5.41981 25.8547 4.72409C25.7318 4.35379 25.419 4.19669 25.0726 4.29768C24.7709 4.37623 24.581 4.71287 24.6369 5.06073C24.6816 5.35249 24.7598 5.63302 24.7709 5.92477C24.8045 7.30499 24.2235 8.40468 23.2402 9.3136C21.6425 10.7948 20.1229 12.3546 18.7263 14.0265C18.0112 14.8906 17.3184 15.7771 16.6033 16.6748C16.5363 16.2371 16.5363 15.8107 16.4134 15.418C16.2123 14.7784 16.257 14.2398 16.8156 13.8021C16.8492 13.7797 16.8603 13.7348 16.8827 13.7011C17.7877 12.2872 17.9888 10.7499 17.7542 9.12284C17.4972 7.38354 16.2346 6.00332 14.6369 5.72279C12.8492 5.40859 11.2961 6.1492 10.4246 7.79873C10.2905 8.05682 10.1676 8.0456 9.9553 7.97827C8.59218 7.58552 7.21787 7.5743 5.8324 7.8885C5.53072 7.95583 5.32961 8.12415 5.28491 8.43834C5.25139 8.7301 5.36313 8.95452 5.63128 9.08918C5.8324 9.19017 6.03352 9.1565 6.24581 9.11162C7.24022 8.89841 8.24581 8.86475 9.22905 9.11162C12.2905 9.88589 14.1117 11.9394 15.0056 14.9018C15.1508 15.3843 15.2626 15.8781 15.2402 16.4728C14.7374 15.6649 14.2346 14.9579 13.6425 14.3295C11.3296 11.8721 8.50279 10.6377 5.10614 10.8285C4.61452 10.8509 4.35754 11.0866 4.36871 11.4905C4.37989 11.9057 4.64804 12.1077 5.13966 12.0965C5.53072 12.0853 5.92178 12.0628 6.31285 12.0965C7.09497 12.1526 7.86592 12.2648 8.70391 12.5902C8.16759 12.6239 7.75419 12.6575 7.34078 12.68C6.88268 12.7024 6.6257 12.9269 6.6257 13.3196C6.6257 13.7123 6.89385 13.9368 7.35195 13.948C8.35754 13.9592 9.35195 13.8246 10.3128 13.5328C10.4693 13.4879 10.6033 13.4318 10.7821 13.544C11.419 13.9704 12.0112 14.453 12.5475 15.014C12.7151 15.1936 12.7263 15.2497 12.4581 15.317C11.5978 15.5078 10.7486 15.4741 9.89944 15.2384C9.43016 15.1038 9.09497 15.2721 8.99441 15.6536C8.88268 16.0576 9.09497 16.3381 9.58659 16.484C10.838 16.8431 12.0782 16.8094 13.3184 16.3942C13.4749 16.3381 13.5978 16.2708 13.7318 16.484C14.1676 17.1573 14.5475 17.8418 14.8939 18.5599C14.9721 18.7283 14.9385 18.8068 14.7821 18.8854C13.9441 19.323 13.095 19.727 12.1899 19.9963C10.8715 20.3778 9.75419 20.1309 8.90502 18.9639C8.2905 18.1111 7.81005 17.1797 7.32961 16.2596C7.02793 15.6761 6.70391 15.1038 6.26815 14.6101C5.0391 13.2186 3.5419 13.0054 1.97765 14.0153C1.76536 14.15 1.55307 14.3071 1.31843 14.4754C1.19553 13.4318 1.47486 12.5566 2.04469 11.7486C2.48044 11.1315 3.02793 10.6489 3.64246 10.2225C4.03352 9.95322 4.1229 9.57169 3.89944 9.2575C3.68715 8.95452 3.31843 8.92086 2.93854 9.16773C2.37989 9.52681 1.88827 9.942 1.45251 10.447C0.324019 11.6813 -0.23464 13.1288 0.0893826 14.8233C0.446925 16.7084 1.62011 18.0325 3.16201 19.0761C3.31843 19.1771 3.47486 19.2332 3.6648 19.2444C4.34637 19.2781 4.78212 18.8293 4.86033 18.0213C4.93854 17.2134 5.11732 16.4167 5.40782 15.62C5.72067 15.9678 5.91061 16.3606 6.11173 16.7421C6.65922 17.7745 7.17318 18.8293 7.88826 19.7606C8.99441 21.197 10.4246 21.7131 12.2011 21.2755C12.7709 21.1408 13.3073 20.9052 13.9441 20.7144C12.6927 22.8016 11.6313 24.8888 10.6704 27.0657C9.87709 26.3363 8.98324 25.9099 7.9553 25.8313C6.78212 25.7304 5.76536 26.1231 4.89385 26.8861C4.6257 27.1218 4.61452 27.5033 4.82681 27.7502C5.0391 28.0083 5.39665 28.0532 5.68715 27.8624C5.78771 27.7951 5.88827 27.7053 5.98882 27.638C7.34078 26.6842 9.29609 27.0769 10.1564 28.4796C10.2346 28.603 10.3464 28.704 10.2123 28.8835C9.50838 29.8486 9.26257 30.9483 9.29609 32.1153C9.29609 32.2836 9.25139 32.3958 9.09497 32.4856C8.18994 33.013 7.59776 33.7985 7.25139 34.7747C7.17318 34.9991 7.05028 35.0665 6.82681 35.0777C5.22905 35.1114 3.88827 33.8209 3.84357 32.2163C3.82123 31.3971 4.02234 30.6453 4.31285 29.8935C4.4581 29.5232 4.31285 29.209 3.97765 29.0631C3.65363 28.9172 3.32961 29.0182 3.17318 29.3548C2.60335 30.6341 2.34637 31.9582 2.7486 33.3384C3.25139 35.0328 4.70391 36.1998 6.52514 36.3345C6.88268 36.3569 6.89385 36.4916 6.87151 36.7609C6.82681 37.2658 6.84916 37.7708 6.90502 38.2645C6.93854 38.5338 7.00558 38.7919 6.94972 39.05C6.73743 40.0375 6.6257 41.0362 6.48044 42.0237C6.4134 42.4389 6.50279 42.7643 6.88268 42.9887C7.05028 42.9887 7.21787 42.9887 7.38547 42.9887C7.69832 42.7306 7.76536 42.3715 7.79888 41.99C7.8324 41.6646 7.87709 41.3392 7.93296 40.9015C8.07821 41.0811 8.14525 41.1821 8.22346 41.2718C9.93296 43.0448 12.7374 43.0224 14.3799 41.1933C15.229 40.2507 15.5642 39.0949 15.6536 37.8606C15.6648 37.6923 15.6201 37.5239 15.8436 37.4005C17.419 36.6038 18.0782 35.2236 18.2235 33.5404C18.2346 33.3496 18.2905 33.2486 18.4804 33.1813C19.2514 32.8783 19.9441 32.4407 20.5698 31.9133C20.7374 31.7674 20.8492 31.7337 21.0614 31.8684C22.1006 32.5305 23.229 32.6202 24.3799 32.205C25.7207 31.7225 26.7263 30.7912 27.5307 29.6241C27.6313 29.4783 27.6871 29.3548 27.9106 29.3997C28.5587 29.5344 29.2179 29.4446 29.8547 29.3324C32.2235 28.906 34.5028 28.9509 36.5698 30.4096C36.9497 30.6789 37.3966 30.6453 37.7877 30.3984C38.1899 30.1515 38.3687 29.7588 38.3352 29.2987C38.2458 27.9409 38.0335 26.6168 37.6201 25.3152C36.514 21.8702 34.3687 19.3567 31.0168 17.954C30.5587 17.7632 30.2123 17.8642 30.0559 18.2233C29.8994 18.5824 30.067 18.9415 30.5028 19.121C33.6536 20.4339 35.5754 22.824 36.514 26.0558C36.8045 27.0545 36.9609 28.0868 37.0503 29.1753C36.9497 29.1192 36.905 29.0967 36.8603 29.0631C35.1397 27.9971 33.2626 27.6604 31.2626 27.8287C30.3687 27.9073 29.5084 28.1317 28.6145 28.1654C28.3017 28.1766 28.1788 28.1205 28.257 27.7502C28.6369 26.0446 27.5531 24.2155 25.8994 23.531C24.7263 23.0485 23.5866 23.2168 22.4804 23.7778C22.3464 23.8452 22.2235 23.9911 22.0447 23.8227C21.3631 23.1719 20.6033 22.6221 19.7095 22.1732C20.2123 22.0273 20.648 21.8815 21.0838 21.758C23.2961 21.1633 25.5195 20.8603 27.7989 21.2867C28.1117 21.3428 28.2011 21.4775 28.2682 21.758C28.5922 23.1382 29.0726 24.4511 29.8883 25.6181C29.9777 25.7416 30.067 25.8762 30.1788 25.9772C30.4358 26.2241 30.7263 26.2578 31.0056 26.0333C31.2737 25.8201 31.352 25.5284 31.1732 25.2142C31.1061 25.0907 31.0168 24.9897 30.9385 24.8775C30.3128 23.9798 29.9106 22.9811 29.6201 21.8702C30.5698 22.2854 31.3296 22.8465 31.9888 23.5534C32.7374 24.3501 33.2849 25.2927 33.6983 26.3026C33.8771 26.729 34.2123 26.8749 34.5587 26.7291C34.8827 26.5832 35.0391 26.2465 34.8938 25.8987C33.9553 23.5198 32.4246 21.6682 30.0223 20.6583C27.7989 19.7157 25.486 19.6709 23.1397 20.0299C23.0056 20.0524 22.8603 20.0636 22.7263 20.086C22.6033 20.1085 22.4916 20.187 22.3687 20.1197C23.3966 19.4015 24.5028 18.919 25.7095 18.6834C26.4246 18.5375 27.1508 18.5375 27.8659 18.5487C28.2458 18.5487 28.5251 18.2906 28.5475 17.954C28.5698 17.6174 28.324 17.3368 27.9441 17.2807C27.7877 17.2583 27.6425 17.2471 27.486 17.2471C25.2626 17.2471 23.2402 17.8642 21.4637 19.2108C20.6704 19.8055 19.8994 20.4227 19.0614 20.9501C18.5475 21.2755 18.0335 21.6009 17.419 21.7244C16.324 21.9488 15.2737 22.2966 14.2905 22.8128C14.2346 22.8465 14.1899 22.8353 14.1564 22.8128C14.2346 22.6894 14.3128 22.5772 14.3799 22.4537C15.3408 20.7705 16.3911 19.1435 17.5307 17.5725C18.0112 16.9104 18.4916 16.2371 19.1397 15.7097C21.1732 14.0378 23.5866 13.3757 26.1341 13.0952C26.3575 13.0727 26.4022 13.1625 26.4246 13.3757C26.5475 14.6998 27.1508 15.7658 28.2793 16.4391C30.2682 17.6398 32.3799 17.6735 34.4804 16.7982C36.2011 16.08 37.095 14.5539 37.0279 12.7137C36.9944 11.008 35.8994 9.53803 34.1899 8.90964C32.7933 8.39346 31.3631 8.34857 29.9218 8.70765C28.324 9.1004 27.1285 9.98688 26.6033 11.6252C26.5251 11.8721 26.3352 11.8384 26.1676 11.8496C25.5531 11.8721 24.9497 11.973 24.3464 12.0853C23.3743 12.2536 22.4358 12.5229 21.4302 12.9044C21.5754 12.7473 21.6425 12.6688 21.7207 12.5902C23.5531 10.6602 25.5307 8.92086 27.6425 7.31621ZM31.7877 1.44748C34.0559 1.25671 36.324 1.20061 38.5922 1.39137C38.5922 1.40259 38.6257 1.43626 38.6145 1.44748C37.6871 3.27655 36.514 4.90364 34.7263 5.9921C32.9162 7.10301 31.0503 7.03568 29.1285 6.17164C29.5978 5.81256 29.9777 5.41981 30.6816 5.59936C31.5307 5.82378 32.4134 5.80134 33.2961 5.71157C33.7207 5.66668 33.9665 5.44226 33.9553 5.06073C33.9441 4.69043 33.6871 4.45478 33.2626 4.44356C32.8715 4.44356 32.4916 4.44356 32 4.44356C32.7598 4.02837 33.486 3.78151 34.2011 3.52342C34.3687 3.45609 34.5475 3.4112 34.7151 3.3551C35.2179 3.18678 35.419 2.90624 35.2961 2.5135C35.1732 2.09831 34.8492 1.97488 34.3128 2.1432C33.3296 2.44617 32.3799 2.8277 31.4525 3.26533C30.5028 3.71418 29.5866 4.2528 28.7039 4.84753C28.6257 3.16433 30.0335 1.59335 31.7877 1.44748ZM4.2905 15.0028C3.92179 15.8893 3.73184 16.8206 3.59776 17.8193C2.86033 17.3032 2.30167 16.6635 1.85475 15.9229C1.81005 15.8556 1.81005 15.8107 1.84357 15.7434C2.14525 15.1823 3.45251 14.5764 4.08938 14.6774C4.31285 14.711 4.39106 14.7672 4.2905 15.0028ZM14.324 38.3431C14.0894 39.5325 13.6425 40.5649 12.4581 41.0699C10.8939 41.7431 9.2067 41.0699 8.54748 39.4877C7.93296 38.0064 7.9553 36.5028 8.53631 35.0104C8.72625 34.5166 9.02793 34.079 9.4972 33.7648C9.51955 33.8321 9.53072 33.877 9.5419 33.9107C9.8324 34.5727 9.91061 35.1562 9.32961 35.7622C9.00558 36.0988 8.98324 36.6599 8.97206 37.1536C8.96089 37.5688 9.2067 37.8494 9.56424 37.883C9.93296 37.9055 10.1899 37.6923 10.2458 37.2546C10.3017 36.8955 10.2682 36.5252 10.5363 36.2223C10.6592 36.2335 10.7039 36.3569 10.7709 36.4355C11.6089 37.3781 12.6592 37.8942 13.9218 37.8718C14.3575 37.8494 14.3911 37.9952 14.324 38.3431ZM16.7374 34.6064C16.3575 35.6612 15.6201 36.3233 14.5251 36.5365C13.3408 36.7609 12.3128 36.413 11.6201 35.4256C10.581 33.9443 10.3128 32.2724 10.8045 30.5331C11.162 29.3099 12.067 28.6591 13.3073 28.5132C14.4246 28.3786 15.3184 28.8274 15.9777 29.7364C16.7151 30.7463 16.9162 31.9245 16.9721 33.1476C16.9497 33.6189 16.9162 34.1239 16.7374 34.6064ZM23.6313 24.7317C24.581 24.3726 25.4972 24.5633 26.257 25.2927C27.0279 26.0333 27.2849 26.9423 26.9385 27.9297C26.3799 29.5119 25.2849 30.6004 23.6536 31.1054C23.4525 31.1727 23.2402 31.1615 23.0391 31.1727C21.3184 31.1727 20.067 29.4446 20.6369 27.7839C21.1397 26.3026 22.1788 25.2703 23.6313 24.7317ZM17.5084 23.0148C17.9665 22.9138 18.3911 23.0709 18.8045 23.2168C19.6313 23.5085 20.324 24.0247 20.9832 24.5858C21.162 24.7317 21.1508 24.799 20.9944 24.9561C20.3352 25.6069 19.7877 26.3363 19.4749 27.2228C19.0614 28.3898 19.1285 29.5232 19.7877 30.5892C19.8883 30.7575 19.9106 30.8473 19.7318 30.9819C19.2626 31.3522 18.7709 31.6776 18.1788 31.9357C18.0335 31.3859 17.9441 30.836 17.743 30.3199C17.1061 28.7152 16.067 27.5819 14.3017 27.2565C13.6648 27.133 12.838 27.2228 11.8659 27.5594C12.3352 26.5607 12.648 25.5508 13.5419 24.8551C14.7263 23.9349 16.0559 23.3402 17.5084 23.0148ZM15.6871 13.084C15.1285 11.8608 14.3575 10.7948 13.352 9.90833C13.1061 9.69513 13.2067 9.57169 13.3966 9.44826C13.5084 9.36971 13.6536 9.34727 13.7654 9.26872C14.067 9.07796 14.1452 8.7862 14.0112 8.47201C13.8883 8.16903 13.6313 8.03438 13.2961 8.11293C12.8939 8.2027 12.5475 8.4159 12.2905 8.74132C11.9888 9.12284 11.8101 8.69643 11.5978 8.6291C11.3184 8.53933 11.5531 8.34857 11.6201 8.23636C12.2123 7.24889 13.0838 6.8337 14.2235 6.97957C15.2626 7.11423 15.9665 7.70896 16.2905 8.68521C16.7598 10.0879 16.6145 11.4569 15.9441 12.7698C15.8883 12.8932 15.8436 13.0279 15.6871 13.084ZM29.5754 10.1664C30.9721 9.61658 32.4022 9.61658 33.8101 10.1328C35.1173 10.6153 35.8547 11.7486 35.7765 13.0279C35.6871 14.4754 34.8492 15.4741 33.3855 15.8781C32.8492 16.0239 32.2905 16.08 31.7095 16.0688C30.9721 16.0913 30.2346 15.9791 29.5307 15.6761C28.3128 15.1487 27.676 14.1724 27.6871 12.8595C27.6983 11.6252 28.3575 10.6489 29.5754 10.1664Z" fill="#D9A14C"/>
</g>
<defs>
<clipPath id="clip0_284_328">
<rect width="40" height="43" fill="white"/>
</clipPath>
</defs>
</svg>
